{
  "accessors": [
    {
      "bufferView": 0,
      "componentType": 5126,
      "count": 6852,
      "max": [
        529.47119140625,
        823.9201049804688,
        0.0
      ],
      "min": [
        -9406.2587890625,
        -17479.373046875,
        -262.246337890625
      ],
      "type": "VEC3"
    },
    {
      "bufferView": 0,
      "byteOffset": 12,
      "componentType": 5126,
      "count": 6852,
      "type": "VEC3"
    },
    {
      "bufferView": 1,
      "componentType": 5125,
      "count": 19596,
      "type": "SCALAR"
    },
    {
      "bufferView": 2,
      "componentType": 5126,
      "count": 1935,
      "max": [
        47.23046875,
        6337.279296875,
        40.0
      ],
      "min": [
        -18281.91015625,
        -3624.407470703125,
        -76.15863037109375
      ],
      "type": "VEC3"
    },
    {
      "bufferView": 2,
      "byteOffset": 12,
      "componentType": 5126,
      "count": 1935,
      "type": "VEC3"
    },
    {
      "bufferView": 3,
      "componentType": 5125,
      "count": 3618,
      "type": "SCALAR"
    }
  ],
  "asset": {
    "version": "2.0"
  },
  "bufferViews": [
    {
      "buffer": 0,
      "byteLength": 219264,
      "byteStride": 32,
      "target": 34962
    },
    {
      "buffer": 0,
      "byteLength": 78384,
      "byteOffset": 219264,
      "target": 34963
    },
    {
      "buffer": 0,
      "byteLength": 46440,
      "byteOffset": 297648,
      "byteStride": 24,
      "target": 34962
    },
    {
      "buffer": 0,
      "byteLength": 14472,
      "byteOffset": 344088,
      "target": 34963
    }
  ],
  "buffers": [
    {
      "byteLength": 358560,
      "uri": "dengpian.bin"
    }
  ],
  "materials": [
    {
      "emissiveFactor": [
        1.0,
        1.0,
        1.0
      ],
      "name": "adskMatdengpian",
      "pbrMetallicRoughness": {
        "metallicFactor": 0.0,
        "roughnessFactor": 0.0
      }
    },
    {
      "name": "adskMath1",
      "pbrMetallicRoughness": {
        "baseColorFactor": [
          0.0,
          0.0,
          0.0,
          1.0
        ],
        "metallicFactor": 0.3499999940395355,
        "roughnessFactor": 0.0
      }
    }
  ],
  "meshes": [
    {
      "name": "dengpian",
      "primitives": [
        {
          "attributes": {
            "NORMAL": 1,
            "POSITION": 0
          },
          "indices": 2,
          "material": 0,
          "mode": 4
        }
      ]
    },
    {
      "name": "h1",
      "primitives": [
        {
          "attributes": {
            "NORMAL": 4,
            "POSITION": 3
          },
          "indices": 5,
          "material": 1,
          "mode": 4
        }
      ]
    }
  ],
  "nodes": [
    {
      "matrix": [
        0.001,
        0.0,
        0.0,
        0.0,
        0.0,
        0.001,
        0.0,
        0.0,
        0.0,
        0.0,
        0.001,
        0.0,
        0.0,
        0.0,
        0.0,
        1.0
      ],
      "mesh": 0,
      "name": "dengpian"
    },
    {
      "children": [
        0
      ],
      "matrix": [
        1.0,
        0.0,
        0.0,
        0.0,
        0.0,
        0.0,
        -1.0,
        0.0,
        0.0,
        1.0,
        0.0,
        0.0,
        7.7409736328125005,
        2.8748596191406253,
        -17.73601171875,
        1.0
      ]
    },
    {
      "matrix": [
        0.001,
        0.0,
        0.0,
        0.0,
        0.0,
        0.001,
        0.0,
        0.0,
        0.0,
        0.0,
        0.001,
        0.0,
        0.0,
        0.0,
        0.0,
        1.0
      ],
      "mesh": 1,
      "name": "h1"
    },
    {
      "children": [
        2
      ],
      "matrix": [
        -4.371138828673793e-08,
        0.0,
        1.0,
        0.0,
        1.0,
        0.0,
        4.371138828673793e-08,
        0.0,
        0.0,
        1.0,
        0.0,
        0.0,
        1.946451171875,
        2.872914306640625,
        -0.2905859375,
        1.0
      ]
    }
  ],
  "scenes": [
    {
      "nodes": [
        1,
        3
      ]
    }
  ]
}
