{
  "accessors": [
    {
      "bufferView": 0,
      "componentType": 5126,
      "count": 9,
      "max": [
        571.2861328125,
        348.5496826171875,
        0.0
      ],
      "min": [
        -571.2861328125,
        -348.5496826171875,
        0.0
      ],
      "type": "VEC3"
    },
    {
      "bufferView": 0,
      "byteOffset": 12,
      "componentType": 5126,
      "count": 9,
      "type": "VEC3"
    },
    {
      "bufferView": 0,
      "byteOffset": 24,
      "componentType": 5126,
      "count": 9,
      "type": "VEC2"
    },
    {
      "bufferView": 1,
      "componentType": 5125,
      "count": 24,
      "type": "SCALAR"
    }
  ],
  "asset": {
    "version": "2.0"
  },
  "bufferViews": [
    {
      "buffer": 0,
      "byteLength": 288,
      "byteStride": 32,
      "target": 34962
    },
    {
      "buffer": 0,
      "byteLength": 96,
      "byteOffset": 288,
      "target": 34963
    }
  ],
  "buffers": [
    {
      "byteLength": 384,
      "uri": "PM3.bin"
    }
  ],
  "images": [
    {
      "uri": "adskMatPM3basecolortexture.jpeg"
    }
  ],
  "materials": [
    {
      "name": "adskMatPM3",
      "pbrMetallicRoughness": {
        "baseColorFactor": [
          0.0010000000474974513,
          0.0010000000474974513,
          0.0010000000474974513,
          1.0
        ],
        "baseColorTexture": {
          "index": 0
        },
        "metallicFactor": 0.0,
        "roughnessFactor": 0.0
      }
    }
  ],
  "meshes": [
    {
      "name": "PM3",
      "primitives": [
        {
          "attributes": {
            "NORMAL": 1,
            "POSITION": 0,
            "TEXCOORD_0": 2
          },
          "indices": 3,
          "material": 0,
          "mode": 4
        }
      ]
    }
  ],
  "nodes": [
    {
      "matrix": [
        0.001,
        0.0,
        0.0,
        0.0,
        0.0,
        0.001,
        0.0,
        0.0,
        0.0,
        0.0,
        0.001,
        0.0,
        0.0,
        0.0,
        0.0,
        1.0
      ],
      "mesh": 0,
      "name": "PM3"
    },
    {
      "children": [
        0
      ],
      "matrix": [
        -4.371138828673793e-08,
        0.0,
        -1.0,
        0.0,
        4.371138828673793e-08,
        1.0,
        -1.910685465164705e-15,
        0.0,
        1.0,
        -4.371138828673793e-08,
        -4.371138828673793e-08,
        0.0,
        -1.8534998779296876,
        2.101486328125,
        -8.800587890625,
        1.0
      ]
    }
  ],
  "samplers": [
    {
      "magFilter": 9729,
      "minFilter": 9729,
      "wrapS": 10497,
      "wrapT": 10497
    }
  ],
  "scenes": [
    {
      "nodes": [
        1
      ]
    }
  ],
  "textures": [
    {
      "name": "texture_source0_sampler0",
      "sampler": 0,
      "source": 0
    }
  ]
}
