{
  "accessors": [
    {
      "bufferView": 0,
      "componentType": 5126,
      "count": 12,
      "max": [
        4547.224609375,
        115.47032165527344,
        0.00011230632662773132
      ],
      "min": [
        -264.1912841796875,
        -115.46884155273438,
        -0.0011893769260495901
      ],
      "type": "VEC3"
    },
    {
      "bufferView": 0,
      "byteOffset": 12,
      "componentType": 5126,
      "count": 12,
      "type": "VEC3"
    },
    {
      "bufferView": 0,
      "byteOffset": 24,
      "componentType": 5126,
      "count": 12,
      "type": "VEC2"
    },
    {
      "bufferView": 1,
      "componentType": 5125,
      "count": 18,
      "type": "SCALAR"
    },
    {
      "bufferView": 2,
      "componentType": 5126,
      "count": 480,
      "max": [
        12.324258804321289,
        12.364498138427734,
        2556.35107421875
      ],
      "min": [
        -12.386297225952148,
        -1326.4375,
        -31.2294921875
      ],
      "type": "VEC3"
    },
    {
      "bufferView": 2,
      "byteOffset": 12,
      "componentType": 5126,
      "count": 480,
      "type": "VEC3"
    },
    {
      "bufferView": 3,
      "componentType": 5125,
      "count": 1008,
      "type": "SCALAR"
    },
    {
      "bufferView": 4,
      "componentType": 5126,
      "count": 4,
      "max": [
        510.5,
        1433.5,
        0.0
      ],
      "min": [
        -510.5,
        -1433.5,
        0.0
      ],
      "type": "VEC3"
    },
    {
      "bufferView": 4,
      "byteOffset": 12,
      "componentType": 5126,
      "count": 4,
      "type": "VEC3"
    },
    {
      "bufferView": 4,
      "byteOffset": 24,
      "componentType": 5126,
      "count": 4,
      "type": "VEC2"
    },
    {
      "bufferView": 5,
      "componentType": 5125,
      "count": 6,
      "type": "SCALAR"
    },
    {
      "bufferView": 6,
      "componentType": 5126,
      "count": 32,
      "max": [
        853.1207885742188,
        27280.3046875,
        0.0
      ],
      "min": [
        -637.1290893554688,
        3812.43408203125,
        0.0
      ],
      "type": "VEC3"
    },
    {
      "bufferView": 6,
      "byteOffset": 12,
      "componentType": 5126,
      "count": 32,
      "type": "VEC3"
    },
    {
      "bufferView": 6,
      "byteOffset": 24,
      "componentType": 5126,
      "count": 32,
      "type": "VEC2"
    },
    {
      "bufferView": 7,
      "componentType": 5125,
      "count": 48,
      "type": "SCALAR"
    },
    {
      "bufferView": 8,
      "componentType": 5126,
      "count": 164,
      "max": [
        -6435.4189453125,
        1.8895759582519531,
        38.94010925292969
      ],
      "min": [
        -6457.8515625,
        -60.519954681396484,
        0.05048179626464844
      ],
      "type": "VEC3"
    },
    {
      "bufferView": 8,
      "byteOffset": 12,
      "componentType": 5126,
      "count": 164,
      "type": "VEC3"
    },
    {
      "bufferView": 9,
      "componentType": 5125,
      "count": 618,
      "type": "SCALAR"
    },
    {
      "bufferView": 8,
      "byteOffset": 5248,
      "componentType": 5126,
      "count": 48,
      "max": [
        -6468.1748046875,
        -9.156097412109375,
        50.18454360961914
      ],
      "min": [
        -6546.62890625,
        -62.12516784667969,
        0.184539794921875
      ],
      "type": "VEC3"
    },
    {
      "bufferView": 8,
      "byteOffset": 5260,
      "componentType": 5126,
      "count": 48,
      "type": "VEC3"
    },
    {
      "bufferView": 9,
      "byteOffset": 2472,
      "componentType": 5125,
      "count": 72,
      "type": "SCALAR"
    },
    {
      "bufferView": 8,
      "byteOffset": 6784,
      "componentType": 5126,
      "count": 406,
      "max": [
        -6025.77734375,
        97.00387573242188,
        392.4535217285156
      ],
      "min": [
        -6174.0341796875,
        -61.704071044921875,
        5.298553466796875
      ],
      "type": "VEC3"
    },
    {
      "bufferView": 8,
      "byteOffset": 6796,
      "componentType": 5126,
      "count": 406,
      "type": "VEC3"
    },
    {
      "bufferView": 8,
      "byteOffset": 6808,
      "componentType": 5126,
      "count": 406,
      "type": "VEC2"
    },
    {
      "bufferView": 9,
      "byteOffset": 2760,
      "componentType": 5125,
      "count": 450,
      "type": "SCALAR"
    },
    {
      "bufferView": 10,
      "componentType": 5126,
      "count": 64,
      "max": [
        18623.09765625,
        1000.50439453125,
        0.0
      ],
      "min": [
        -4127.001953125,
        -140.25038146972656,
        0.0
      ],
      "type": "VEC3"
    },
    {
      "bufferView": 10,
      "byteOffset": 12,
      "componentType": 5126,
      "count": 64,
      "type": "VEC3"
    },
    {
      "bufferView": 10,
      "byteOffset": 24,
      "componentType": 5126,
      "count": 64,
      "type": "VEC2"
    },
    {
      "bufferView": 11,
      "componentType": 5125,
      "count": 96,
      "type": "SCALAR"
    },
    {
      "bufferView": 12,
      "componentType": 5126,
      "count": 44,
      "max": [
        2606.989990234375,
        -2154.892333984375,
        0.0
      ],
      "min": [
        -20879.15234375,
        -3277.112548828125,
        0.0
      ],
      "type": "VEC3"
    },
    {
      "bufferView": 12,
      "byteOffset": 12,
      "componentType": 5126,
      "count": 44,
      "type": "VEC3"
    },
    {
      "bufferView": 12,
      "byteOffset": 24,
      "componentType": 5126,
      "count": 44,
      "type": "VEC2"
    },
    {
      "bufferView": 13,
      "componentType": 5125,
      "count": 66,
      "type": "SCALAR"
    },
    {
      "bufferView": 14,
      "componentType": 5126,
      "count": 28,
      "max": [
        -970.9826049804688,
        937.2008666992188,
        3673.284912109375
      ],
      "min": [
        -9304.3232421875,
        -12574.283203125,
        3005.1669921875
      ],
      "type": "VEC3"
    },
    {
      "bufferView": 14,
      "byteOffset": 12,
      "componentType": 5126,
      "count": 28,
      "type": "VEC3"
    },
    {
      "bufferView": 14,
      "byteOffset": 24,
      "componentType": 5126,
      "count": 28,
      "type": "VEC2"
    },
    {
      "bufferView": 15,
      "componentType": 5125,
      "count": 42,
      "type": "SCALAR"
    },
    {
      "bufferView": 16,
      "componentType": 5126,
      "count": 40,
      "max": [
        11456.6005859375,
        1082.484619140625,
        1.3897433746024035e-06
      ],
      "min": [
        -3753.2021484375,
        -82.483642578125,
        -8.248396625276655e-06
      ],
      "type": "VEC3"
    },
    {
      "bufferView": 16,
      "byteOffset": 12,
      "componentType": 5126,
      "count": 40,
      "type": "VEC3"
    },
    {
      "bufferView": 16,
      "byteOffset": 24,
      "componentType": 5126,
      "count": 40,
      "type": "VEC2"
    },
    {
      "bufferView": 17,
      "componentType": 5125,
      "count": 60,
      "type": "SCALAR"
    },
    {
      "bufferView": 18,
      "componentType": 5126,
      "count": 28,
      "max": [
        54441.421875,
        1873.85009765625,
        0.0
      ],
      "min": [
        -4181.0,
        -1873.85009765625,
        -0.00013738501002080739
      ],
      "type": "VEC3"
    },
    {
      "bufferView": 18,
      "byteOffset": 12,
      "componentType": 5126,
      "count": 28,
      "type": "VEC3"
    },
    {
      "bufferView": 18,
      "byteOffset": 24,
      "componentType": 5126,
      "count": 28,
      "type": "VEC2"
    },
    {
      "bufferView": 19,
      "componentType": 5125,
      "count": 42,
      "type": "SCALAR"
    },
    {
      "bufferView": 20,
      "componentType": 5126,
      "count": 56,
      "max": [
        618.910888671875,
        577.021484375,
        1.0443025530548766e-05
      ],
      "min": [
        -11874.689453125,
        -77.02099609375,
        -1.540424273116514e-05
      ],
      "type": "VEC3"
    },
    {
      "bufferView": 20,
      "byteOffset": 12,
      "componentType": 5126,
      "count": 56,
      "type": "VEC3"
    },
    {
      "bufferView": 20,
      "byteOffset": 24,
      "componentType": 5126,
      "count": 56,
      "type": "VEC2"
    },
    {
      "bufferView": 21,
      "componentType": 5125,
      "count": 84,
      "type": "SCALAR"
    },
    {
      "bufferView": 22,
      "componentType": 5126,
      "count": 36,
      "max": [
        755.546875,
        1000.000732421875,
        0.0
      ],
      "min": [
        -2309.28857421875,
        -1469.58544921875,
        -12.51708984375
      ],
      "type": "VEC3"
    },
    {
      "bufferView": 22,
      "byteOffset": 12,
      "componentType": 5126,
      "count": 36,
      "type": "VEC3"
    },
    {
      "bufferView": 22,
      "byteOffset": 24,
      "componentType": 5126,
      "count": 36,
      "type": "VEC2"
    },
    {
      "bufferView": 23,
      "componentType": 5125,
      "count": 60,
      "type": "SCALAR"
    },
    {
      "bufferView": 24,
      "componentType": 5126,
      "count": 1724,
      "max": [
        185.5751953125,
        -372.50860595703125,
        87.4810562133789
      ],
      "min": [
        -101.06300354003906,
        -527.364990234375,
        -73.85272979736328
      ],
      "type": "VEC3"
    },
    {
      "bufferView": 24,
      "byteOffset": 12,
      "componentType": 5126,
      "count": 1724,
      "type": "VEC3"
    },
    {
      "bufferView": 24,
      "byteOffset": 24,
      "componentType": 5126,
      "count": 1724,
      "type": "VEC2"
    },
    {
      "bufferView": 25,
      "componentType": 5125,
      "count": 5289,
      "type": "SCALAR"
    },
    {
      "bufferView": 26,
      "componentType": 5126,
      "count": 20,
      "max": [
        313.03466796875,
        8040.74755859375,
        0.0
      ],
      "min": [
        -6387.2578125,
        -254.2431640625,
        0.0
      ],
      "type": "VEC3"
    },
    {
      "bufferView": 26,
      "byteOffset": 12,
      "componentType": 5126,
      "count": 20,
      "type": "VEC3"
    },
    {
      "bufferView": 26,
      "byteOffset": 24,
      "componentType": 5126,
      "count": 20,
      "type": "VEC2"
    },
    {
      "bufferView": 27,
      "componentType": 5125,
      "count": 30,
      "type": "SCALAR"
    },
    {
      "bufferView": 28,
      "componentType": 5126,
      "count": 26,
      "max": [
        -901.666748046875,
        1326.000244140625,
        0.000244140625
      ],
      "min": [
        -5969.951171875,
        1084.9093017578125,
        -221.53515625
      ],
      "type": "VEC3"
    },
    {
      "bufferView": 28,
      "byteOffset": 12,
      "componentType": 5126,
      "count": 26,
      "type": "VEC3"
    },
    {
      "bufferView": 28,
      "byteOffset": 24,
      "componentType": 5126,
      "count": 26,
      "type": "VEC2"
    },
    {
      "bufferView": 29,
      "componentType": 5125,
      "count": 36,
      "type": "SCALAR"
    },
    {
      "bufferView": 30,
      "componentType": 5126,
      "count": 56,
      "max": [
        1502.777587890625,
        1084.90966796875,
        0.00030517578125
      ],
      "min": [
        -13862.8935546875,
        843.8182373046875,
        -221.53521728515625
      ],
      "type": "VEC3"
    },
    {
      "bufferView": 30,
      "byteOffset": 12,
      "componentType": 5126,
      "count": 56,
      "type": "VEC3"
    },
    {
      "bufferView": 30,
      "byteOffset": 24,
      "componentType": 5126,
      "count": 56,
      "type": "VEC2"
    },
    {
      "bufferView": 31,
      "componentType": 5125,
      "count": 84,
      "type": "SCALAR"
    },
    {
      "bufferView": 32,
      "componentType": 5126,
      "count": 146,
      "max": [
        2103.888671875,
        843.821533203125,
        0.000293731689453125
      ],
      "min": [
        -15867.0703125,
        602.7271118164063,
        -221.53517150878906
      ],
      "type": "VEC3"
    },
    {
      "bufferView": 32,
      "byteOffset": 12,
      "componentType": 5126,
      "count": 146,
      "type": "VEC3"
    },
    {
      "bufferView": 32,
      "byteOffset": 24,
      "componentType": 5126,
      "count": 146,
      "type": "VEC2"
    },
    {
      "bufferView": 33,
      "componentType": 5125,
      "count": 192,
      "type": "SCALAR"
    },
    {
      "bufferView": 34,
      "componentType": 5126,
      "count": 98,
      "max": [
        2401.61181640625,
        361.6366271972656,
        0.002262115478515625
      ],
      "min": [
        -18371.70703125,
        120.54417419433594,
        -221.53512573242188
      ],
      "type": "VEC3"
    },
    {
      "bufferView": 34,
      "byteOffset": 12,
      "componentType": 5126,
      "count": 98,
      "type": "VEC3"
    },
    {
      "bufferView": 34,
      "byteOffset": 24,
      "componentType": 5126,
      "count": 98,
      "type": "VEC2"
    },
    {
      "bufferView": 35,
      "componentType": 5125,
      "count": 132,
      "type": "SCALAR"
    },
    {
      "bufferView": 36,
      "componentType": 5126,
      "count": 66,
      "max": [
        -653.642333984375,
        -120.54534912109375,
        8311.5400390625
      ],
      "min": [
        -7330.54052734375,
        -8683.5556640625,
        -221.5350341796875
      ],
      "type": "VEC3"
    },
    {
      "bufferView": 36,
      "byteOffset": 12,
      "componentType": 5126,
      "count": 66,
      "type": "VEC3"
    },
    {
      "bufferView": 36,
      "byteOffset": 24,
      "componentType": 5126,
      "count": 66,
      "type": "VEC2"
    },
    {
      "bufferView": 37,
      "componentType": 5125,
      "count": 84,
      "type": "SCALAR"
    },
    {
      "bufferView": 38,
      "componentType": 5126,
      "count": 82,
      "max": [
        2704.999755859375,
        -361.6362609863281,
        0.000743865966796875
      ],
      "min": [
        -8779.41796875,
        -602.7282104492188,
        -221.5350799560547
      ],
      "type": "VEC3"
    },
    {
      "bufferView": 38,
      "byteOffset": 12,
      "componentType": 5126,
      "count": 82,
      "type": "VEC3"
    },
    {
      "bufferView": 38,
      "byteOffset": 24,
      "componentType": 5126,
      "count": 82,
      "type": "VEC2"
    },
    {
      "bufferView": 39,
      "componentType": 5125,
      "count": 108,
      "type": "SCALAR"
    },
    {
      "bufferView": 40,
      "componentType": 5126,
      "count": 58,
      "max": [
        862.46142578125,
        -602.727294921875,
        0.00101470947265625
      ],
      "min": [
        -10589.4443359375,
        -843.819580078125,
        -221.53517150878906
      ],
      "type": "VEC3"
    },
    {
      "bufferView": 40,
      "byteOffset": 12,
      "componentType": 5126,
      "count": 58,
      "type": "VEC3"
    },
    {
      "bufferView": 40,
      "byteOffset": 24,
      "componentType": 5126,
      "count": 58,
      "type": "VEC2"
    },
    {
      "bufferView": 41,
      "componentType": 5125,
      "count": 72,
      "type": "SCALAR"
    },
    {
      "bufferView": 42,
      "componentType": 5126,
      "count": 54,
      "max": [
        1418.07275390625,
        698.2889404296875,
        -1542.106689453125
      ],
      "min": [
        -22566.12890625,
        457.19744873046875,
        -1763.642822265625
      ],
      "type": "VEC3"
    },
    {
      "bufferView": 42,
      "byteOffset": 12,
      "componentType": 5126,
      "count": 54,
      "type": "VEC3"
    },
    {
      "bufferView": 42,
      "byteOffset": 24,
      "componentType": 5126,
      "count": 54,
      "type": "VEC2"
    },
    {
      "bufferView": 43,
      "componentType": 5125,
      "count": 72,
      "type": "SCALAR"
    }
  ],
  "asset": {
    "version": "2.0"
  },
  "bufferViews": [
    {
      "buffer": 0,
      "byteLength": 384,
      "byteStride": 32,
      "target": 34962
    },
    {
      "buffer": 0,
      "byteLength": 72,
      "byteOffset": 384,
      "target": 34963
    },
    {
      "buffer": 0,
      "byteLength": 15360,
      "byteOffset": 456,
      "byteStride": 32,
      "target": 34962
    },
    {
      "buffer": 0,
      "byteLength": 4032,
      "byteOffset": 15816,
      "target": 34963
    },
    {
      "buffer": 0,
      "byteLength": 128,
      "byteOffset": 19848,
      "byteStride": 32,
      "target": 34962
    },
    {
      "buffer": 0,
      "byteLength": 24,
      "byteOffset": 19976,
      "target": 34963
    },
    {
      "buffer": 0,
      "byteLength": 1024,
      "byteOffset": 20000,
      "byteStride": 32,
      "target": 34962
    },
    {
      "buffer": 0,
      "byteLength": 192,
      "byteOffset": 21024,
      "target": 34963
    },
    {
      "buffer": 0,
      "byteLength": 19776,
      "byteOffset": 21216,
      "byteStride": 32,
      "target": 34962
    },
    {
      "buffer": 0,
      "byteLength": 4560,
      "byteOffset": 40992,
      "target": 34963
    },
    {
      "buffer": 0,
      "byteLength": 2048,
      "byteOffset": 45552,
      "byteStride": 32,
      "target": 34962
    },
    {
      "buffer": 0,
      "byteLength": 384,
      "byteOffset": 47600,
      "target": 34963
    },
    {
      "buffer": 0,
      "byteLength": 1408,
      "byteOffset": 47984,
      "byteStride": 32,
      "target": 34962
    },
    {
      "buffer": 0,
      "byteLength": 264,
      "byteOffset": 49392,
      "target": 34963
    },
    {
      "buffer": 0,
      "byteLength": 896,
      "byteOffset": 49656,
      "byteStride": 32,
      "target": 34962
    },
    {
      "buffer": 0,
      "byteLength": 168,
      "byteOffset": 50552,
      "target": 34963
    },
    {
      "buffer": 0,
      "byteLength": 1280,
      "byteOffset": 50720,
      "byteStride": 32,
      "target": 34962
    },
    {
      "buffer": 0,
      "byteLength": 240,
      "byteOffset": 52000,
      "target": 34963
    },
    {
      "buffer": 0,
      "byteLength": 896,
      "byteOffset": 52240,
      "byteStride": 32,
      "target": 34962
    },
    {
      "buffer": 0,
      "byteLength": 168,
      "byteOffset": 53136,
      "target": 34963
    },
    {
      "buffer": 0,
      "byteLength": 1792,
      "byteOffset": 53304,
      "byteStride": 32,
      "target": 34962
    },
    {
      "buffer": 0,
      "byteLength": 336,
      "byteOffset": 55096,
      "target": 34963
    },
    {
      "buffer": 0,
      "byteLength": 1152,
      "byteOffset": 55432,
      "byteStride": 32,
      "target": 34962
    },
    {
      "buffer": 0,
      "byteLength": 240,
      "byteOffset": 56584,
      "target": 34963
    },
    {
      "buffer": 0,
      "byteLength": 55168,
      "byteOffset": 56824,
      "byteStride": 32,
      "target": 34962
    },
    {
      "buffer": 0,
      "byteLength": 21156,
      "byteOffset": 111992,
      "target": 34963
    },
    {
      "buffer": 0,
      "byteLength": 640,
      "byteOffset": 133148,
      "byteStride": 32,
      "target": 34962
    },
    {
      "buffer": 0,
      "byteLength": 120,
      "byteOffset": 133788,
      "target": 34963
    },
    {
      "buffer": 0,
      "byteLength": 832,
      "byteOffset": 133908,
      "byteStride": 32,
      "target": 34962
    },
    {
      "buffer": 0,
      "byteLength": 144,
      "byteOffset": 134740,
      "target": 34963
    },
    {
      "buffer": 0,
      "byteLength": 1792,
      "byteOffset": 134884,
      "byteStride": 32,
      "target": 34962
    },
    {
      "buffer": 0,
      "byteLength": 336,
      "byteOffset": 136676,
      "target": 34963
    },
    {
      "buffer": 0,
      "byteLength": 4672,
      "byteOffset": 137012,
      "byteStride": 32,
      "target": 34962
    },
    {
      "buffer": 0,
      "byteLength": 768,
      "byteOffset": 141684,
      "target": 34963
    },
    {
      "buffer": 0,
      "byteLength": 3136,
      "byteOffset": 142452,
      "byteStride": 32,
      "target": 34962
    },
    {
      "buffer": 0,
      "byteLength": 528,
      "byteOffset": 145588,
      "target": 34963
    },
    {
      "buffer": 0,
      "byteLength": 2112,
      "byteOffset": 146116,
      "byteStride": 32,
      "target": 34962
    },
    {
      "buffer": 0,
      "byteLength": 336,
      "byteOffset": 148228,
      "target": 34963
    },
    {
      "buffer": 0,
      "byteLength": 2624,
      "byteOffset": 148564,
      "byteStride": 32,
      "target": 34962
    },
    {
      "buffer": 0,
      "byteLength": 432,
      "byteOffset": 151188,
      "target": 34963
    },
    {
      "buffer": 0,
      "byteLength": 1856,
      "byteOffset": 151620,
      "byteStride": 32,
      "target": 34962
    },
    {
      "buffer": 0,
      "byteLength": 288,
      "byteOffset": 153476,
      "target": 34963
    },
    {
      "buffer": 0,
      "byteLength": 1728,
      "byteOffset": 153764,
      "byteStride": 32,
      "target": 34962
    },
    {
      "buffer": 0,
      "byteLength": 288,
      "byteOffset": 155492,
      "target": 34963
    }
  ],
  "buffers": [
    {
      "byteLength": 155780,
      "uri": "Exhibits.bin"
    }
  ],
  "images": [
    {
      "uri": "zp1basecolortexture.jpeg"
    },
    {
      "uri": "ZP9basecolortexture.png"
    },
    {
      "uri": "adskMatZP2basecolortexture.jpeg"
    },
    {
      "uri": "adskMatZP39basecolortexture.jpeg"
    },
    {
      "uri": "adskMatZP3basecolortexture.jpeg"
    },
    {
      "uri": "adskMatZP4basecolortexture.jpeg"
    },
    {
      "uri": "adskMatZP5basecolortexture.jpeg"
    },
    {
      "uri": "adskMatZP6basecolortexture.jpeg"
    },
    {
      "uri": "adskMatZP7basecolortexture.jpeg"
    },
    {
      "uri": "adskMatZP8basecolortexture.jpeg"
    },
    {
      "uri": "adskMatZP10basecolortexture.jpeg"
    },
    {
      "uri": "adskMatZP53basecolortexture.jpeg"
    },
    {
      "uri": "Material__27720basecolortexture.jpeg"
    }
  ],
  "materials": [
    {
      "name": "zp1",
      "pbrMetallicRoughness": {
        "baseColorFactor": [
          0.5,
          0.5,
          0.5,
          1.0
        ],
        "baseColorTexture": {
          "index": 0
        },
        "metallicFactor": 0.0
      }
    },
    {
      "name": "MU",
      "pbrMetallicRoughness": {
        "baseColorFactor": [
          0.8104270100593567,
          0.8104270100593567,
          0.8104270100593567,
          1.0
        ],
        "metallicFactor": 0.0
      }
    },
    {
      "alphaMode": "BLEND",
      "name": "ZP9",
      "pbrMetallicRoughness": {
        "baseColorFactor": [
          0.5,
          0.5,
          0.5,
          1.0
        ],
        "baseColorTexture": {
          "index": 1
        },
        "metallicFactor": 0.0
      }
    },
    {
      "name": "adskMatZP2",
      "pbrMetallicRoughness": {
        "baseColorFactor": [
          0.5,
          0.5,
          0.5,
          1.0
        ],
        "baseColorTexture": {
          "index": 2
        },
        "metallicFactor": 0.0
      }
    },
    {
      "name": "M_02___Default",
      "pbrMetallicRoughness": {
        "baseColorFactor": [
          0.5,
          0.36055999994277954,
          0.19668200612068176,
          1.0
        ],
        "metallicFactor": 0.3199999928474426,
        "roughnessFactor": 0.0
      }
    },
    {
      "name": "M_03___Default",
      "pbrMetallicRoughness": {
        "baseColorFactor": [
          0.023696700111031532,
          0.023696700111031532,
          0.023696700111031532,
          1.0
        ],
        "metallicFactor": 0.0,
        "roughnessFactor": 0.8100000023841858
      }
    },
    {
      "name": "adskMatZP39",
      "pbrMetallicRoughness": {
        "baseColorFactor": [
          0.5,
          0.5,
          0.5,
          1.0
        ],
        "baseColorTexture": {
          "index": 3
        },
        "metallicFactor": 0.0,
        "roughnessFactor": 0.0
      }
    },
    {
      "name": "adskMatZP3",
      "pbrMetallicRoughness": {
        "baseColorFactor": [
          0.5,
          0.5,
          0.5,
          1.0
        ],
        "baseColorTexture": {
          "index": 4
        },
        "metallicFactor": 0.0
      }
    },
    {
      "name": "adskMatZP4",
      "pbrMetallicRoughness": {
        "baseColorFactor": [
          0.5,
          0.5,
          0.5,
          1.0
        ],
        "baseColorTexture": {
          "index": 5
        },
        "metallicFactor": 0.0
      }
    },
    {
      "name": "adskMatZP5",
      "pbrMetallicRoughness": {
        "baseColorFactor": [
          0.5,
          0.5,
          0.5,
          1.0
        ],
        "baseColorTexture": {
          "index": 6
        },
        "metallicFactor": 0.0
      }
    },
    {
      "name": "adskMatZP6",
      "pbrMetallicRoughness": {
        "baseColorFactor": [
          0.5,
          0.5,
          0.5,
          1.0
        ],
        "baseColorTexture": {
          "index": 7
        },
        "metallicFactor": 0.0,
        "roughnessFactor": 0.0
      }
    },
    {
      "name": "adskMatZP7",
      "pbrMetallicRoughness": {
        "baseColorFactor": [
          0.5,
          0.5,
          0.5,
          1.0
        ],
        "baseColorTexture": {
          "index": 8
        },
        "metallicFactor": 0.0
      }
    },
    {
      "name": "adskMatZP8",
      "pbrMetallicRoughness": {
        "baseColorFactor": [
          0.5,
          0.5,
          0.5,
          1.0
        ],
        "baseColorTexture": {
          "index": 9
        },
        "metallicFactor": 0.0,
        "roughnessFactor": 0.0
      }
    },
    {
      "name": "adskMatZP10",
      "pbrMetallicRoughness": {
        "baseColorFactor": [
          0.5,
          0.5,
          0.5,
          1.0
        ],
        "baseColorTexture": {
          "index": 10
        },
        "metallicFactor": 0.0
      }
    },
    {
      "name": "adskMatZP53",
      "pbrMetallicRoughness": {
        "baseColorTexture": {
          "index": 11
        },
        "metallicFactor": 0.0,
        "roughnessFactor": 0.0
      }
    },
    {
      "name": "Material__27720",
      "pbrMetallicRoughness": {
        "baseColorFactor": [
          0.5,
          0.5,
          0.5,
          1.0
        ],
        "baseColorTexture": {
          "index": 12
        },
        "metallicFactor": 0.0,
        "roughnessFactor": 0.0
      }
    }
  ],
  "meshes": [
    {
      "name": "ZP1",
      "primitives": [
        {
          "attributes": {
            "NORMAL": 1,
            "POSITION": 0,
            "TEXCOORD_0": 2
          },
          "indices": 3,
          "material": 0,
          "mode": 4
        }
      ]
    },
    {
      "name": "Circle01",
      "primitives": [
        {
          "attributes": {
            "NORMAL": 5,
            "POSITION": 4
          },
          "indices": 6,
          "material": 1,
          "mode": 4
        }
      ]
    },
    {
      "name": "ZP0",
      "primitives": [
        {
          "attributes": {
            "NORMAL": 8,
            "POSITION": 7,
            "TEXCOORD_0": 9
          },
          "indices": 10,
          "material": 2,
          "mode": 4
        }
      ]
    },
    {
      "name": "ZP2",
      "primitives": [
        {
          "attributes": {
            "NORMAL": 12,
            "POSITION": 11,
            "TEXCOORD_0": 13
          },
          "indices": 14,
          "material": 3,
          "mode": 4
        }
      ]
    },
    {
      "name": "ZP39",
      "primitives": [
        {
          "attributes": {
            "NORMAL": 16,
            "POSITION": 15
          },
          "indices": 17,
          "material": 4,
          "mode": 4
        },
        {
          "attributes": {
            "NORMAL": 19,
            "POSITION": 18
          },
          "indices": 20,
          "material": 5,
          "mode": 4
        },
        {
          "attributes": {
            "NORMAL": 22,
            "POSITION": 21,
            "TEXCOORD_0": 23
          },
          "indices": 24,
          "material": 6,
          "mode": 4
        }
      ]
    },
    {
      "name": "ZP3",
      "primitives": [
        {
          "attributes": {
            "NORMAL": 26,
            "POSITION": 25,
            "TEXCOORD_0": 27
          },
          "indices": 28,
          "material": 7,
          "mode": 4
        }
      ]
    },
    {
      "name": "ZP4",
      "primitives": [
        {
          "attributes": {
            "NORMAL": 30,
            "POSITION": 29,
            "TEXCOORD_0": 31
          },
          "indices": 32,
          "material": 8,
          "mode": 4
        }
      ]
    },
    {
      "name": "ZP5",
      "primitives": [
        {
          "attributes": {
            "NORMAL": 34,
            "POSITION": 33,
            "TEXCOORD_0": 35
          },
          "indices": 36,
          "material": 9,
          "mode": 4
        }
      ]
    },
    {
      "name": "ZP6",
      "primitives": [
        {
          "attributes": {
            "NORMAL": 38,
            "POSITION": 37,
            "TEXCOORD_0": 39
          },
          "indices": 40,
          "material": 10,
          "mode": 4
        }
      ]
    },
    {
      "name": "ZP7",
      "primitives": [
        {
          "attributes": {
            "NORMAL": 42,
            "POSITION": 41,
            "TEXCOORD_0": 43
          },
          "indices": 44,
          "material": 11,
          "mode": 4
        }
      ]
    },
    {
      "name": "ZP8",
      "primitives": [
        {
          "attributes": {
            "NORMAL": 46,
            "POSITION": 45,
            "TEXCOORD_0": 47
          },
          "indices": 48,
          "material": 12,
          "mode": 4
        }
      ]
    },
    {
      "name": "ZP10",
      "primitives": [
        {
          "attributes": {
            "NORMAL": 50,
            "POSITION": 49,
            "TEXCOORD_0": 51
          },
          "indices": 52,
          "material": 13,
          "mode": 4
        }
      ]
    },
    {
      "name": "ZP53",
      "primitives": [
        {
          "attributes": {
            "NORMAL": 54,
            "POSITION": 53,
            "TEXCOORD_0": 55
          },
          "indices": 56,
          "material": 14,
          "mode": 4
        }
      ]
    },
    {
      "name": "MP10",
      "primitives": [
        {
          "attributes": {
            "NORMAL": 58,
            "POSITION": 57,
            "TEXCOORD_0": 59
          },
          "indices": 60,
          "material": 15,
          "mode": 4
        }
      ]
    },
    {
      "name": "MP1",
      "primitives": [
        {
          "attributes": {
            "NORMAL": 62,
            "POSITION": 61,
            "TEXCOORD_0": 63
          },
          "indices": 64,
          "material": 15,
          "mode": 4
        }
      ]
    },
    {
      "name": "MP2",
      "primitives": [
        {
          "attributes": {
            "NORMAL": 66,
            "POSITION": 65,
            "TEXCOORD_0": 67
          },
          "indices": 68,
          "material": 15,
          "mode": 4
        }
      ]
    },
    {
      "name": "MP3",
      "primitives": [
        {
          "attributes": {
            "NORMAL": 70,
            "POSITION": 69,
            "TEXCOORD_0": 71
          },
          "indices": 72,
          "material": 15,
          "mode": 4
        }
      ]
    },
    {
      "name": "MP4",
      "primitives": [
        {
          "attributes": {
            "NORMAL": 74,
            "POSITION": 73,
            "TEXCOORD_0": 75
          },
          "indices": 76,
          "material": 15,
          "mode": 4
        }
      ]
    },
    {
      "name": "MP5",
      "primitives": [
        {
          "attributes": {
            "NORMAL": 78,
            "POSITION": 77,
            "TEXCOORD_0": 79
          },
          "indices": 80,
          "material": 15,
          "mode": 4
        }
      ]
    },
    {
      "name": "MP6",
      "primitives": [
        {
          "attributes": {
            "NORMAL": 82,
            "POSITION": 81,
            "TEXCOORD_0": 83
          },
          "indices": 84,
          "material": 15,
          "mode": 4
        }
      ]
    },
    {
      "name": "MP7",
      "primitives": [
        {
          "attributes": {
            "NORMAL": 86,
            "POSITION": 85,
            "TEXCOORD_0": 87
          },
          "indices": 88,
          "material": 15,
          "mode": 4
        }
      ]
    },
    {
      "name": "MP8",
      "primitives": [
        {
          "attributes": {
            "NORMAL": 90,
            "POSITION": 89,
            "TEXCOORD_0": 91
          },
          "indices": 92,
          "material": 15,
          "mode": 4
        }
      ]
    }
  ],
  "nodes": [
    {
      "matrix": [
        0.001,
        0.0,
        0.0,
        0.0,
        0.0,
        0.001,
        0.0,
        0.0,
        0.0,
        0.0,
        0.001,
        0.0,
        0.0,
        0.0,
        0.0,
        1.0
      ],
      "mesh": 0,
      "name": "ZP1"
    },
    {
      "children": [
        0
      ],
      "matrix": [
        -0.3279938101768493,
        0.0,
        -4.978730316906876e-07,
        0.0,
        -1.568870970913849e-06,
        0.6203052997589111,
        1.033556580543518,
        0.0,
        7.811295859028176e-07,
        0.8574303984642028,
        -0.514600396156311,
        0.0,
        4.17704296875,
        0.62199462890625,
        -0.27535809326171873,
        1.0
      ]
    },
    {
      "matrix": [
        0.001,
        0.0,
        0.0,
        0.0,
        0.0,
        0.001,
        0.0,
        0.0,
        0.0,
        0.0,
        0.001,
        0.0,
        0.0,
        0.0,
        0.0,
        1.0
      ],
      "mesh": 1,
      "name": "Circle01"
    },
    {
      "children": [
        2
      ],
      "matrix": [
        6.697721488535535e-08,
        -1.254605293273926,
        6.697718646364593e-08,
        0.0,
        -1.1964848454226742e-06,
        -6.69772575179195e-08,
        -1.254605293273926,
        0.0,
        0.8749510049819947,
        4.6709292433888556e-08,
        -8.344183015651653e-07,
        0.0,
        1.0079136962890625,
        1.073853271484375,
        -11.682193359375,
        1.0
      ]
    },
    {
      "matrix": [
        0.001,
        0.0,
        0.0,
        0.0,
        0.0,
        0.001,
        0.0,
        0.0,
        0.0,
        0.0,
        0.001,
        0.0,
        0.0,
        0.0,
        0.0,
        1.0
      ],
      "mesh": 2,
      "name": "ZP0"
    },
    {
      "children": [
        4
      ],
      "matrix": [
        -8.594888356583397e-08,
        0.0,
        0.527550458908081,
        0.0,
        -2.0109494514031212e-08,
        0.46005162596702576,
        -3.2762529244867748e-15,
        0.0,
        -1.0,
        -4.371138828673793e-08,
        -1.629206849429466e-07,
        0.0,
        9.0337578125,
        1.4841820068359375,
        -5.07809765625,
        1.0
      ]
    },
    {
      "matrix": [
        0.001,
        0.0,
        0.0,
        0.0,
        0.0,
        0.001,
        0.0,
        0.0,
        0.0,
        0.0,
        0.001,
        0.0,
        0.0,
        0.0,
        0.0,
        1.0
      ],
      "mesh": 3,
      "name": "ZP2"
    },
    {
      "children": [
        6
      ],
      "matrix": [
        0.1648193746805191,
        0.0,
        0.0,
        0.0,
        0.0,
        0.0,
        -0.1648193746805191,
        0.0,
        0.0,
        0.4300196766853332,
        0.0,
        0.0,
        8.8840537109375,
        0.39836218261718753,
        -1.6403642578125,
        1.0
      ]
    },
    {
      "matrix": [
        0.001,
        0.0,
        0.0,
        0.0,
        0.0,
        0.001,
        0.0,
        0.0,
        0.0,
        0.0,
        0.001,
        0.0,
        0.0,
        0.0,
        0.0,
        1.0
      ],
      "mesh": 4,
      "name": "ZP39"
    },
    {
      "children": [
        8
      ],
      "matrix": [
        -2.3077117816683312e-07,
        0.0,
        1.4164633750915527,
        0.0,
        1.3231854438781734,
        0.0,
        2.1557427487550735e-07,
        0.0,
        0.0,
        1.0,
        0.0,
        0.0,
        8.8741337890625,
        0.3978695068359375,
        -8.259561523437501,
        1.0
      ]
    },
    {
      "matrix": [
        0.001,
        0.0,
        0.0,
        0.0,
        0.0,
        0.001,
        0.0,
        0.0,
        0.0,
        0.0,
        0.001,
        0.0,
        0.0,
        0.0,
        0.0,
        1.0
      ],
      "mesh": 5,
      "name": "ZP3"
    },
    {
      "children": [
        10
      ],
      "matrix": [
        -8.712838450719573e-09,
        0.0,
        0.19932650029659274,
        0.0,
        0.19932650029659274,
        0.0,
        8.712838450719573e-09,
        0.0,
        0.0,
        0.316703736782074,
        0.0,
        0.0,
        8.799388671875,
        0.3984333801269531,
        -11.8345498046875,
        1.0
      ]
    },
    {
      "matrix": [
        0.001,
        0.0,
        0.0,
        0.0,
        0.0,
        0.001,
        0.0,
        0.0,
        0.0,
        0.0,
        0.001,
        0.0,
        0.0,
        0.0,
        0.0,
        1.0
      ],
      "mesh": 6,
      "name": "ZP4"
    },
    {
      "children": [
        12
      ],
      "matrix": [
        -9.730318772938062e-09,
        0.0,
        0.22260373830795288,
        0.0,
        0.22260373830795288,
        0.0,
        9.730318772938062e-09,
        0.0,
        0.0,
        0.22260373830795288,
        0.0,
        0.0,
        9.490283203125001,
        0.39837493896484377,
        -13.407828125,
        1.0
      ]
    },
    {
      "matrix": [
        0.001,
        0.0,
        0.0,
        0.0,
        0.0,
        0.001,
        0.0,
        0.0,
        0.0,
        0.0,
        0.001,
        0.0,
        0.0,
        0.0,
        0.0,
        1.0
      ],
      "mesh": 7,
      "name": "ZP5"
    },
    {
      "children": [
        14
      ],
      "matrix": [
        0.24268512427806851,
        0.0,
        0.0,
        0.0,
        0.0,
        0.0,
        -0.24268512427806851,
        0.0,
        0.0,
        0.24268512427806851,
        0.0,
        0.0,
        8.62151953125,
        3.786574234254658e-08,
        -18.3028125,
        1.0
      ]
    },
    {
      "matrix": [
        0.001,
        0.0,
        0.0,
        0.0,
        0.0,
        0.001,
        0.0,
        0.0,
        0.0,
        0.0,
        0.001,
        0.0,
        0.0,
        0.0,
        0.0,
        1.0
      ],
      "mesh": 8,
      "name": "ZP6"
    },
    {
      "children": [
        16
      ],
      "matrix": [
        -8.227686087991515e-09,
        0.0,
        0.18822751939296722,
        0.0,
        0.16510304808616638,
        0.09039127826690674,
        7.216883535221541e-09,
        0.0,
        -0.09039127826690674,
        0.16510304808616638,
        -3.951128313417485e-09,
        0.0,
        5.7203896484375,
        0.7469782104492187,
        -17.373279296875,
        1.0
      ]
    },
    {
      "matrix": [
        0.001,
        0.0,
        0.0,
        0.0,
        0.0,
        0.001,
        0.0,
        0.0,
        0.0,
        0.0,
        0.001,
        0.0,
        0.0,
        0.0,
        0.0,
        1.0
      ],
      "mesh": 9,
      "name": "ZP7"
    },
    {
      "children": [
        18
      ],
      "matrix": [
        0.04799758642911911,
        0.0,
        0.0,
        0.0,
        0.0,
        0.023020559921860695,
        -0.042116764932870865,
        0.0,
        0.0,
        0.042116764932870865,
        0.023020559921860695,
        0.0,
        2.660113525390625,
        0.8017362060546875,
        -18.46765234375,
        1.0
      ]
    },
    {
      "matrix": [
        0.001,
        0.0,
        0.0,
        0.0,
        0.0,
        0.001,
        0.0,
        0.0,
        0.0,
        0.0,
        0.001,
        0.0,
        0.0,
        0.0,
        0.0,
        1.0
      ],
      "mesh": 10,
      "name": "ZP8"
    },
    {
      "children": [
        20
      ],
      "matrix": [
        -2.1433995911479542e-08,
        0.0,
        -0.49035266041755676,
        0.0,
        -0.4293841421604157,
        0.23680157959461215,
        1.876897748331885e-08,
        0.0,
        0.23680157959461215,
        0.4293841421604157,
        -1.0350926338276167e-08,
        0.0,
        -1.621003173828125,
        0.7762731933593751,
        -16.314970703125,
        1.0
      ]
    },
    {
      "matrix": [
        0.001,
        0.0,
        0.0,
        0.0,
        0.0,
        0.001,
        0.0,
        0.0,
        0.0,
        0.0,
        0.001,
        0.0,
        0.0,
        0.0,
        0.0,
        1.0
      ],
      "mesh": 11,
      "name": "ZP10"
    },
    {
      "children": [
        22
      ],
      "matrix": [
        0.724219024181366,
        0.0,
        0.0,
        0.0,
        0.0,
        0.0,
        -0.8115565776824951,
        0.0,
        0.0,
        0.8115565776824951,
        0.0,
        0.0,
        2.6709738769531253,
        1.0697825927734375,
        -10.850943359375,
        1.0
      ]
    },
    {
      "matrix": [
        0.001,
        0.0,
        0.0,
        0.0,
        0.0,
        0.001,
        0.0,
        0.0,
        0.0,
        0.0,
        0.001,
        0.0,
        0.0,
        0.0,
        0.0,
        1.0
      ],
      "mesh": 12,
      "name": "ZP53"
    },
    {
      "children": [
        24
      ],
      "matrix": [
        0.7887027859687805,
        0.5938949584960938,
        -0.15886075794696808,
        0.0,
        0.6112149357795715,
        -0.7297362685203552,
        0.30643320083618164,
        0.0,
        0.06606268882751465,
        -0.33878278732299805,
        -0.9385424256324768,
        0.0,
        6.07456884765625,
        0.5289805297851563,
        -16.1151474609375,
        1.0
      ]
    },
    {
      "matrix": [
        0.001,
        0.0,
        0.0,
        0.0,
        0.0,
        0.001,
        0.0,
        0.0,
        0.0,
        0.0,
        0.001,
        0.0,
        0.0,
        0.0,
        0.0,
        1.0
      ],
      "mesh": 13,
      "name": "MP10"
    },
    {
      "children": [
        26
      ],
      "matrix": [
        0.25,
        0.0,
        4.371138828673793e-08,
        0.0,
        4.371138828673793e-08,
        0.0,
        -0.25,
        0.0,
        0.0,
        0.25,
        0.0,
        0.0,
        3.022193115234375,
        1.060020263671875,
        -9.8277392578125,
        1.0
      ]
    },
    {
      "matrix": [
        0.001,
        0.0,
        0.0,
        0.0,
        0.0,
        0.001,
        0.0,
        0.0,
        0.0,
        0.0,
        0.001,
        0.0,
        0.0,
        0.0,
        0.0,
        1.0
      ],
      "mesh": 14,
      "name": "MP1"
    },
    {
      "children": [
        28
      ],
      "matrix": [
        -0.25,
        0.0,
        -2.1855694143368968e-08,
        0.0,
        -1.54543098318527e-08,
        0.1767766922712326,
        0.1767766922712326,
        0.0,
        1.54543098318527e-08,
        0.1767766922712326,
        -0.1767766922712326,
        0.0,
        2.759694580078125,
        0.3029920959472656,
        -0.6705367431640625,
        1.0
      ]
    },
    {
      "matrix": [
        0.001,
        0.0,
        0.0,
        0.0,
        0.0,
        0.001,
        0.0,
        0.0,
        0.0,
        0.0,
        0.001,
        0.0,
        0.0,
        0.0,
        0.0,
        1.0
      ],
      "mesh": 15,
      "name": "MP2"
    },
    {
      "children": [
        30
      ],
      "matrix": [
        -1.0927847071684482e-08,
        0.0,
        0.25,
        0.0,
        0.20478799939155579,
        0.1433941274881363,
        8.951567487258671e-09,
        0.0,
        -0.1433941274881363,
        0.20478799939155579,
        -6.267956376149186e-09,
        0.0,
        8.5466640625,
        0.27650683593750003,
        -2.634185302734375,
        1.0
      ]
    },
    {
      "matrix": [
        0.001,
        0.0,
        0.0,
        0.0,
        0.0,
        0.001,
        0.0,
        0.0,
        0.0,
        0.0,
        0.001,
        0.0,
        0.0,
        0.0,
        0.0,
        1.0
      ],
      "mesh": 16,
      "name": "MP3"
    },
    {
      "children": [
        32
      ],
      "matrix": [
        -1.0927847071684482e-08,
        0.0,
        0.25,
        0.0,
        0.20478799939155579,
        0.1433941274881363,
        8.951567487258671e-09,
        0.0,
        -0.1433941274881363,
        0.20478799939155579,
        -6.267956376149186e-09,
        0.0,
        8.5960361328125,
        0.3110781555175781,
        -8.7103955078125,
        1.0
      ]
    },
    {
      "matrix": [
        0.001,
        0.0,
        0.0,
        0.0,
        0.0,
        0.001,
        0.0,
        0.0,
        0.0,
        0.0,
        0.001,
        0.0,
        0.0,
        0.0,
        0.0,
        1.0
      ],
      "mesh": 17,
      "name": "MP4"
    },
    {
      "children": [
        34
      ],
      "matrix": [
        -1.0927847071684482e-08,
        0.0,
        0.25,
        0.0,
        0.20478799939155579,
        0.1433941274881363,
        8.951567487258671e-09,
        0.0,
        -0.1433941274881363,
        0.20478799939155579,
        -6.267956376149186e-09,
        0.0,
        8.6947822265625,
        0.3802203674316406,
        -13.442404296875,
        1.0
      ]
    },
    {
      "matrix": [
        0.001,
        0.0,
        0.0,
        0.0,
        0.0,
        0.001,
        0.0,
        0.0,
        0.0,
        0.0,
        0.001,
        0.0,
        0.0,
        0.0,
        0.0,
        1.0
      ],
      "mesh": 18,
      "name": "MP5"
    },
    {
      "children": [
        36
      ],
      "matrix": [
        0.25,
        0.0,
        0.0,
        0.0,
        0.0,
        0.1767766922712326,
        -0.1767766922712326,
        0.0,
        0.0,
        0.1767766922712326,
        0.1767766922712326,
        0.0,
        8.403580078125,
        0.799154052734375,
        -18.313072265625,
        1.0
      ]
    },
    {
      "matrix": [
        0.001,
        0.0,
        0.0,
        0.0,
        0.0,
        0.001,
        0.0,
        0.0,
        0.0,
        0.0,
        0.001,
        0.0,
        0.0,
        0.0,
        0.0,
        1.0
      ],
      "mesh": 19,
      "name": "MP6"
    },
    {
      "children": [
        38
      ],
      "matrix": [
        -4.0730171235736634e-08,
        0.0,
        0.25,
        0.0,
        0.14694631099700928,
        0.2022542506456375,
        2.3940593507632002e-08,
        0.0,
        -0.2022542506456375,
        0.14694631099700928,
        -3.295140160730625e-08,
        0.0,
        5.7210166015625,
        0.8200863037109375,
        -15.8976787109375,
        1.0
      ]
    },
    {
      "matrix": [
        0.001,
        0.0,
        0.0,
        0.0,
        0.0,
        0.001,
        0.0,
        0.0,
        0.0,
        0.0,
        0.001,
        0.0,
        0.0,
        0.0,
        0.0,
        1.0
      ],
      "mesh": 20,
      "name": "MP7"
    },
    {
      "children": [
        40
      ],
      "matrix": [
        0.25,
        0.0,
        4.371138828673793e-08,
        0.0,
        2.569290913356781e-08,
        0.2022542506456375,
        -0.14694631099700928,
        0.0,
        -3.53632572114293e-08,
        0.14694631099700928,
        0.2022542506456375,
        0.0,
        5.0695576171875,
        0.8812611694335938,
        -18.427146484375,
        1.0
      ]
    },
    {
      "matrix": [
        0.001,
        0.0,
        0.0,
        0.0,
        0.0,
        0.001,
        0.0,
        0.0,
        0.0,
        0.0,
        0.001,
        0.0,
        0.0,
        0.0,
        0.0,
        1.0
      ],
      "mesh": 21,
      "name": "MP8"
    },
    {
      "children": [
        42
      ],
      "matrix": [
        2.9812201596257633e-09,
        0.0,
        -0.24999999999999994,
        0.0,
        -0.14694632589817047,
        0.20225423574447635,
        -1.7523174022926467e-09,
        0.0,
        0.20225423574447635,
        0.14694632589817047,
        2.411857602524492e-09,
        0.0,
        -1.1436796875,
        0.8555125122070313,
        -16.24112109375,
        1.0
      ]
    }
  ],
  "samplers": [
    {
      "magFilter": 9729,
      "minFilter": 9729,
      "wrapS": 10497,
      "wrapT": 10497
    },
    {
      "magFilter": 9729,
      "minFilter": 9729,
      "wrapS": 10497,
      "wrapT": 10497
    },
    {
      "magFilter": 9729,
      "minFilter": 9729,
      "wrapS": 10497,
      "wrapT": 10497
    },
    {
      "magFilter": 9729,
      "minFilter": 9729,
      "wrapS": 10497,
      "wrapT": 10497
    },
    {
      "magFilter": 9729,
      "minFilter": 9729,
      "wrapS": 10497,
      "wrapT": 10497
    },
    {
      "magFilter": 9729,
      "minFilter": 9729,
      "wrapS": 10497,
      "wrapT": 10497
    },
    {
      "magFilter": 9729,
      "minFilter": 9729,
      "wrapS": 10497,
      "wrapT": 10497
    },
    {
      "magFilter": 9729,
      "minFilter": 9729,
      "wrapS": 10497,
      "wrapT": 10497
    },
    {
      "magFilter": 9729,
      "minFilter": 9729,
      "wrapS": 10497,
      "wrapT": 10497
    },
    {
      "magFilter": 9729,
      "minFilter": 9729,
      "wrapS": 10497,
      "wrapT": 10497
    },
    {
      "magFilter": 9729,
      "minFilter": 9729,
      "wrapS": 10497,
      "wrapT": 10497
    },
    {
      "magFilter": 9729,
      "minFilter": 9729,
      "wrapS": 10497,
      "wrapT": 10497
    },
    {
      "magFilter": 9729,
      "minFilter": 9729,
      "wrapS": 10497,
      "wrapT": 10497
    }
  ],
  "scenes": [
    {
      "nodes": [
        1,
        3,
        5,
        7,
        9,
        11,
        13,
        15,
        17,
        19,
        21,
        23,
        25,
        27,
        29,
        31,
        33,
        35,
        37,
        39,
        41,
        43
      ]
    }
  ],
  "textures": [
    {
      "name": "texture_source0_sampler0",
      "sampler": 0,
      "source": 0
    },
    {
      "name": "texture_source1_sampler1",
      "sampler": 1,
      "source": 1
    },
    {
      "name": "texture_source2_sampler2",
      "sampler": 2,
      "source": 2
    },
    {
      "name": "texture_source3_sampler3",
      "sampler": 3,
      "source": 3
    },
    {
      "name": "texture_source4_sampler4",
      "sampler": 4,
      "source": 4
    },
    {
      "name": "texture_source5_sampler5",
      "sampler": 5,
      "source": 5
    },
    {
      "name": "texture_source6_sampler6",
      "sampler": 6,
      "source": 6
    },
    {
      "name": "texture_source7_sampler7",
      "sampler": 7,
      "source": 7
    },
    {
      "name": "texture_source8_sampler8",
      "sampler": 8,
      "source": 8
    },
    {
      "name": "texture_source9_sampler9",
      "sampler": 9,
      "source": 9
    },
    {
      "name": "texture_source10_sampler10",
      "sampler": 10,
      "source": 10
    },
    {
      "name": "texture_source11_sampler11",
      "sampler": 11,
      "source": 11
    },
    {
      "name": "texture_source12_sampler12",
      "sampler": 12,
      "source": 12
    }
  ]
}
