{
  "accessors": [
    {
      "bufferView": 0,
      "componentType": 5126,
      "count": 4,
      "max": [
        163.0,
        165.0,
        0.0
      ],
      "min": [
        -163.0,
        -165.0,
        0.0
      ],
      "type": "VEC3"
    },
    {
      "bufferView": 0,
      "byteOffset": 12,
      "componentType": 5126,
      "count": 4,
      "type": "VEC3"
    },
    {
      "bufferView": 0,
      "byteOffset": 24,
      "componentType": 5126,
      "count": 4,
      "type": "VEC2"
    },
    {
      "bufferView": 1,
      "componentType": 5125,
      "count": 6,
      "type": "SCALAR"
    },
    {
      "bufferView": 2,
      "componentType": 5126,
      "count": 4,
      "max": [
        163.0,
        165.0,
        0.0
      ],
      "min": [
        -163.0,
        -165.0,
        0.0
      ],
      "type": "VEC3"
    },
    {
      "bufferView": 2,
      "byteOffset": 12,
      "componentType": 5126,
      "count": 4,
      "type": "VEC3"
    },
    {
      "bufferView": 2,
      "byteOffset": 24,
      "componentType": 5126,
      "count": 4,
      "type": "VEC2"
    },
    {
      "bufferView": 3,
      "componentType": 5125,
      "count": 6,
      "type": "SCALAR"
    },
    {
      "bufferView": 4,
      "componentType": 5126,
      "count": 4,
      "max": [
        163.0,
        165.0,
        0.0
      ],
      "min": [
        -163.0,
        -165.0,
        0.0
      ],
      "type": "VEC3"
    },
    {
      "bufferView": 4,
      "byteOffset": 12,
      "componentType": 5126,
      "count": 4,
      "type": "VEC3"
    },
    {
      "bufferView": 4,
      "byteOffset": 24,
      "componentType": 5126,
      "count": 4,
      "type": "VEC2"
    },
    {
      "bufferView": 5,
      "componentType": 5125,
      "count": 6,
      "type": "SCALAR"
    },
    {
      "bufferView": 6,
      "componentType": 5126,
      "count": 4,
      "max": [
        163.0,
        165.0,
        0.0
      ],
      "min": [
        -163.0,
        -165.0,
        0.0
      ],
      "type": "VEC3"
    },
    {
      "bufferView": 6,
      "byteOffset": 12,
      "componentType": 5126,
      "count": 4,
      "type": "VEC3"
    },
    {
      "bufferView": 6,
      "byteOffset": 24,
      "componentType": 5126,
      "count": 4,
      "type": "VEC2"
    },
    {
      "bufferView": 7,
      "componentType": 5125,
      "count": 6,
      "type": "SCALAR"
    },
    {
      "bufferView": 8,
      "componentType": 5126,
      "count": 4,
      "max": [
        163.0,
        165.0,
        0.0
      ],
      "min": [
        -163.0,
        -165.0,
        0.0
      ],
      "type": "VEC3"
    },
    {
      "bufferView": 8,
      "byteOffset": 12,
      "componentType": 5126,
      "count": 4,
      "type": "VEC3"
    },
    {
      "bufferView": 8,
      "byteOffset": 24,
      "componentType": 5126,
      "count": 4,
      "type": "VEC2"
    },
    {
      "bufferView": 9,
      "componentType": 5125,
      "count": 6,
      "type": "SCALAR"
    },
    {
      "bufferView": 10,
      "componentType": 5126,
      "count": 4,
      "max": [
        163.0,
        165.0,
        0.0
      ],
      "min": [
        -163.0,
        -165.0,
        0.0
      ],
      "type": "VEC3"
    },
    {
      "bufferView": 10,
      "byteOffset": 12,
      "componentType": 5126,
      "count": 4,
      "type": "VEC3"
    },
    {
      "bufferView": 10,
      "byteOffset": 24,
      "componentType": 5126,
      "count": 4,
      "type": "VEC2"
    },
    {
      "bufferView": 11,
      "componentType": 5125,
      "count": 6,
      "type": "SCALAR"
    },
    {
      "bufferView": 12,
      "componentType": 5126,
      "count": 4,
      "max": [
        163.0,
        165.0,
        0.0
      ],
      "min": [
        -163.0,
        -165.0,
        0.0
      ],
      "type": "VEC3"
    },
    {
      "bufferView": 12,
      "byteOffset": 12,
      "componentType": 5126,
      "count": 4,
      "type": "VEC3"
    },
    {
      "bufferView": 12,
      "byteOffset": 24,
      "componentType": 5126,
      "count": 4,
      "type": "VEC2"
    },
    {
      "bufferView": 13,
      "componentType": 5125,
      "count": 6,
      "type": "SCALAR"
    },
    {
      "bufferView": 14,
      "componentType": 5126,
      "count": 4,
      "max": [
        163.0,
        165.0,
        0.0
      ],
      "min": [
        -163.0,
        -165.0,
        0.0
      ],
      "type": "VEC3"
    },
    {
      "bufferView": 14,
      "byteOffset": 12,
      "componentType": 5126,
      "count": 4,
      "type": "VEC3"
    },
    {
      "bufferView": 14,
      "byteOffset": 24,
      "componentType": 5126,
      "count": 4,
      "type": "VEC2"
    },
    {
      "bufferView": 15,
      "componentType": 5125,
      "count": 6,
      "type": "SCALAR"
    },
    {
      "bufferView": 16,
      "componentType": 5126,
      "count": 4,
      "max": [
        163.0,
        165.0,
        0.0
      ],
      "min": [
        -163.0,
        -165.0,
        0.0
      ],
      "type": "VEC3"
    },
    {
      "bufferView": 16,
      "byteOffset": 12,
      "componentType": 5126,
      "count": 4,
      "type": "VEC3"
    },
    {
      "bufferView": 16,
      "byteOffset": 24,
      "componentType": 5126,
      "count": 4,
      "type": "VEC2"
    },
    {
      "bufferView": 17,
      "componentType": 5125,
      "count": 6,
      "type": "SCALAR"
    },
    {
      "bufferView": 18,
      "componentType": 5126,
      "count": 4,
      "max": [
        163.0,
        165.0,
        0.0
      ],
      "min": [
        -163.0,
        -165.0,
        0.0
      ],
      "type": "VEC3"
    },
    {
      "bufferView": 18,
      "byteOffset": 12,
      "componentType": 5126,
      "count": 4,
      "type": "VEC3"
    },
    {
      "bufferView": 18,
      "byteOffset": 24,
      "componentType": 5126,
      "count": 4,
      "type": "VEC2"
    },
    {
      "bufferView": 19,
      "componentType": 5125,
      "count": 6,
      "type": "SCALAR"
    },
    {
      "bufferView": 20,
      "componentType": 5126,
      "count": 4,
      "max": [
        163.0,
        165.0,
        0.0
      ],
      "min": [
        -163.0,
        -165.0,
        0.0
      ],
      "type": "VEC3"
    },
    {
      "bufferView": 20,
      "byteOffset": 12,
      "componentType": 5126,
      "count": 4,
      "type": "VEC3"
    },
    {
      "bufferView": 20,
      "byteOffset": 24,
      "componentType": 5126,
      "count": 4,
      "type": "VEC2"
    },
    {
      "bufferView": 21,
      "componentType": 5125,
      "count": 6,
      "type": "SCALAR"
    },
    {
      "bufferView": 22,
      "componentType": 5126,
      "count": 4,
      "max": [
        163.0,
        165.0,
        0.0
      ],
      "min": [
        -163.0,
        -165.0,
        0.0
      ],
      "type": "VEC3"
    },
    {
      "bufferView": 22,
      "byteOffset": 12,
      "componentType": 5126,
      "count": 4,
      "type": "VEC3"
    },
    {
      "bufferView": 22,
      "byteOffset": 24,
      "componentType": 5126,
      "count": 4,
      "type": "VEC2"
    },
    {
      "bufferView": 23,
      "componentType": 5125,
      "count": 6,
      "type": "SCALAR"
    },
    {
      "bufferView": 24,
      "componentType": 5126,
      "count": 4,
      "max": [
        163.0,
        165.0,
        0.0
      ],
      "min": [
        -163.0,
        -165.0,
        0.0
      ],
      "type": "VEC3"
    },
    {
      "bufferView": 24,
      "byteOffset": 12,
      "componentType": 5126,
      "count": 4,
      "type": "VEC3"
    },
    {
      "bufferView": 24,
      "byteOffset": 24,
      "componentType": 5126,
      "count": 4,
      "type": "VEC2"
    },
    {
      "bufferView": 25,
      "componentType": 5125,
      "count": 6,
      "type": "SCALAR"
    },
    {
      "bufferView": 26,
      "componentType": 5126,
      "count": 4,
      "max": [
        163.0,
        165.0,
        0.0
      ],
      "min": [
        -163.0,
        -165.0,
        0.0
      ],
      "type": "VEC3"
    },
    {
      "bufferView": 26,
      "byteOffset": 12,
      "componentType": 5126,
      "count": 4,
      "type": "VEC3"
    },
    {
      "bufferView": 26,
      "byteOffset": 24,
      "componentType": 5126,
      "count": 4,
      "type": "VEC2"
    },
    {
      "bufferView": 27,
      "componentType": 5125,
      "count": 6,
      "type": "SCALAR"
    },
    {
      "bufferView": 28,
      "componentType": 5126,
      "count": 4,
      "max": [
        163.0,
        165.0,
        0.0
      ],
      "min": [
        -163.0,
        -165.0,
        0.0
      ],
      "type": "VEC3"
    },
    {
      "bufferView": 28,
      "byteOffset": 12,
      "componentType": 5126,
      "count": 4,
      "type": "VEC3"
    },
    {
      "bufferView": 28,
      "byteOffset": 24,
      "componentType": 5126,
      "count": 4,
      "type": "VEC2"
    },
    {
      "bufferView": 29,
      "componentType": 5125,
      "count": 6,
      "type": "SCALAR"
    },
    {
      "bufferView": 30,
      "componentType": 5126,
      "count": 4,
      "max": [
        163.0,
        165.0,
        0.0
      ],
      "min": [
        -163.0,
        -165.0,
        0.0
      ],
      "type": "VEC3"
    },
    {
      "bufferView": 30,
      "byteOffset": 12,
      "componentType": 5126,
      "count": 4,
      "type": "VEC3"
    },
    {
      "bufferView": 30,
      "byteOffset": 24,
      "componentType": 5126,
      "count": 4,
      "type": "VEC2"
    },
    {
      "bufferView": 31,
      "componentType": 5125,
      "count": 6,
      "type": "SCALAR"
    },
    {
      "bufferView": 32,
      "componentType": 5126,
      "count": 4,
      "max": [
        163.0,
        165.0,
        0.0
      ],
      "min": [
        -163.0,
        -165.0,
        0.0
      ],
      "type": "VEC3"
    },
    {
      "bufferView": 32,
      "byteOffset": 12,
      "componentType": 5126,
      "count": 4,
      "type": "VEC3"
    },
    {
      "bufferView": 32,
      "byteOffset": 24,
      "componentType": 5126,
      "count": 4,
      "type": "VEC2"
    },
    {
      "bufferView": 33,
      "componentType": 5125,
      "count": 6,
      "type": "SCALAR"
    },
    {
      "bufferView": 34,
      "componentType": 5126,
      "count": 4,
      "max": [
        163.0,
        165.0,
        0.0
      ],
      "min": [
        -163.0,
        -165.0,
        0.0
      ],
      "type": "VEC3"
    },
    {
      "bufferView": 34,
      "byteOffset": 12,
      "componentType": 5126,
      "count": 4,
      "type": "VEC3"
    },
    {
      "bufferView": 34,
      "byteOffset": 24,
      "componentType": 5126,
      "count": 4,
      "type": "VEC2"
    },
    {
      "bufferView": 35,
      "componentType": 5125,
      "count": 6,
      "type": "SCALAR"
    },
    {
      "bufferView": 36,
      "componentType": 5126,
      "count": 4,
      "max": [
        163.0,
        165.0,
        0.0
      ],
      "min": [
        -163.0,
        -165.0,
        0.0
      ],
      "type": "VEC3"
    },
    {
      "bufferView": 36,
      "byteOffset": 12,
      "componentType": 5126,
      "count": 4,
      "type": "VEC3"
    },
    {
      "bufferView": 36,
      "byteOffset": 24,
      "componentType": 5126,
      "count": 4,
      "type": "VEC2"
    },
    {
      "bufferView": 37,
      "componentType": 5125,
      "count": 6,
      "type": "SCALAR"
    },
    {
      "bufferView": 38,
      "componentType": 5126,
      "count": 4,
      "max": [
        163.0,
        165.0,
        0.0
      ],
      "min": [
        -163.0,
        -165.0,
        0.0
      ],
      "type": "VEC3"
    },
    {
      "bufferView": 38,
      "byteOffset": 12,
      "componentType": 5126,
      "count": 4,
      "type": "VEC3"
    },
    {
      "bufferView": 38,
      "byteOffset": 24,
      "componentType": 5126,
      "count": 4,
      "type": "VEC2"
    },
    {
      "bufferView": 39,
      "componentType": 5125,
      "count": 6,
      "type": "SCALAR"
    },
    {
      "bufferView": 40,
      "componentType": 5126,
      "count": 4,
      "max": [
        163.0,
        165.0,
        0.0
      ],
      "min": [
        -163.0,
        -165.0,
        0.0
      ],
      "type": "VEC3"
    },
    {
      "bufferView": 40,
      "byteOffset": 12,
      "componentType": 5126,
      "count": 4,
      "type": "VEC3"
    },
    {
      "bufferView": 40,
      "byteOffset": 24,
      "componentType": 5126,
      "count": 4,
      "type": "VEC2"
    },
    {
      "bufferView": 41,
      "componentType": 5125,
      "count": 6,
      "type": "SCALAR"
    },
    {
      "bufferView": 42,
      "componentType": 5126,
      "count": 4,
      "max": [
        163.0,
        165.0,
        0.0
      ],
      "min": [
        -163.0,
        -165.0,
        0.0
      ],
      "type": "VEC3"
    },
    {
      "bufferView": 42,
      "byteOffset": 12,
      "componentType": 5126,
      "count": 4,
      "type": "VEC3"
    },
    {
      "bufferView": 42,
      "byteOffset": 24,
      "componentType": 5126,
      "count": 4,
      "type": "VEC2"
    },
    {
      "bufferView": 43,
      "componentType": 5125,
      "count": 6,
      "type": "SCALAR"
    },
    {
      "bufferView": 44,
      "componentType": 5126,
      "count": 4,
      "max": [
        163.0,
        165.0,
        0.0
      ],
      "min": [
        -163.0,
        -165.0,
        0.0
      ],
      "type": "VEC3"
    },
    {
      "bufferView": 44,
      "byteOffset": 12,
      "componentType": 5126,
      "count": 4,
      "type": "VEC3"
    },
    {
      "bufferView": 44,
      "byteOffset": 24,
      "componentType": 5126,
      "count": 4,
      "type": "VEC2"
    },
    {
      "bufferView": 45,
      "componentType": 5125,
      "count": 6,
      "type": "SCALAR"
    },
    {
      "bufferView": 46,
      "componentType": 5126,
      "count": 4,
      "max": [
        163.0,
        165.0,
        0.0
      ],
      "min": [
        -163.0,
        -165.0,
        0.0
      ],
      "type": "VEC3"
    },
    {
      "bufferView": 46,
      "byteOffset": 12,
      "componentType": 5126,
      "count": 4,
      "type": "VEC3"
    },
    {
      "bufferView": 46,
      "byteOffset": 24,
      "componentType": 5126,
      "count": 4,
      "type": "VEC2"
    },
    {
      "bufferView": 47,
      "componentType": 5125,
      "count": 6,
      "type": "SCALAR"
    },
    {
      "bufferView": 48,
      "componentType": 5126,
      "count": 4,
      "max": [
        163.0,
        165.0,
        0.0
      ],
      "min": [
        -163.0,
        -165.0,
        0.0
      ],
      "type": "VEC3"
    },
    {
      "bufferView": 48,
      "byteOffset": 12,
      "componentType": 5126,
      "count": 4,
      "type": "VEC3"
    },
    {
      "bufferView": 48,
      "byteOffset": 24,
      "componentType": 5126,
      "count": 4,
      "type": "VEC2"
    },
    {
      "bufferView": 49,
      "componentType": 5125,
      "count": 6,
      "type": "SCALAR"
    },
    {
      "bufferView": 50,
      "componentType": 5126,
      "count": 4,
      "max": [
        163.0,
        165.0,
        0.0
      ],
      "min": [
        -163.0,
        -165.0,
        0.0
      ],
      "type": "VEC3"
    },
    {
      "bufferView": 50,
      "byteOffset": 12,
      "componentType": 5126,
      "count": 4,
      "type": "VEC3"
    },
    {
      "bufferView": 50,
      "byteOffset": 24,
      "componentType": 5126,
      "count": 4,
      "type": "VEC2"
    },
    {
      "bufferView": 51,
      "componentType": 5125,
      "count": 6,
      "type": "SCALAR"
    },
    {
      "bufferView": 52,
      "componentType": 5126,
      "count": 4,
      "max": [
        163.0,
        165.0,
        0.0
      ],
      "min": [
        -163.0,
        -165.0,
        0.0
      ],
      "type": "VEC3"
    },
    {
      "bufferView": 52,
      "byteOffset": 12,
      "componentType": 5126,
      "count": 4,
      "type": "VEC3"
    },
    {
      "bufferView": 52,
      "byteOffset": 24,
      "componentType": 5126,
      "count": 4,
      "type": "VEC2"
    },
    {
      "bufferView": 53,
      "componentType": 5125,
      "count": 6,
      "type": "SCALAR"
    },
    {
      "bufferView": 54,
      "componentType": 5126,
      "count": 4,
      "max": [
        163.0,
        165.0,
        0.0
      ],
      "min": [
        -163.0,
        -165.0,
        0.0
      ],
      "type": "VEC3"
    },
    {
      "bufferView": 54,
      "byteOffset": 12,
      "componentType": 5126,
      "count": 4,
      "type": "VEC3"
    },
    {
      "bufferView": 54,
      "byteOffset": 24,
      "componentType": 5126,
      "count": 4,
      "type": "VEC2"
    },
    {
      "bufferView": 55,
      "componentType": 5125,
      "count": 6,
      "type": "SCALAR"
    },
    {
      "bufferView": 56,
      "componentType": 5126,
      "count": 4,
      "max": [
        163.0,
        165.0,
        0.0
      ],
      "min": [
        -163.0,
        -165.0,
        0.0
      ],
      "type": "VEC3"
    },
    {
      "bufferView": 56,
      "byteOffset": 12,
      "componentType": 5126,
      "count": 4,
      "type": "VEC3"
    },
    {
      "bufferView": 56,
      "byteOffset": 24,
      "componentType": 5126,
      "count": 4,
      "type": "VEC2"
    },
    {
      "bufferView": 57,
      "componentType": 5125,
      "count": 6,
      "type": "SCALAR"
    },
    {
      "bufferView": 58,
      "componentType": 5126,
      "count": 4,
      "max": [
        163.0,
        165.0,
        0.0
      ],
      "min": [
        -163.0,
        -165.0,
        0.0
      ],
      "type": "VEC3"
    },
    {
      "bufferView": 58,
      "byteOffset": 12,
      "componentType": 5126,
      "count": 4,
      "type": "VEC3"
    },
    {
      "bufferView": 58,
      "byteOffset": 24,
      "componentType": 5126,
      "count": 4,
      "type": "VEC2"
    },
    {
      "bufferView": 59,
      "componentType": 5125,
      "count": 6,
      "type": "SCALAR"
    },
    {
      "bufferView": 60,
      "componentType": 5126,
      "count": 4,
      "max": [
        163.0,
        165.0,
        0.0
      ],
      "min": [
        -163.0,
        -165.0,
        0.0
      ],
      "type": "VEC3"
    },
    {
      "bufferView": 60,
      "byteOffset": 12,
      "componentType": 5126,
      "count": 4,
      "type": "VEC3"
    },
    {
      "bufferView": 60,
      "byteOffset": 24,
      "componentType": 5126,
      "count": 4,
      "type": "VEC2"
    },
    {
      "bufferView": 61,
      "componentType": 5125,
      "count": 6,
      "type": "SCALAR"
    },
    {
      "bufferView": 62,
      "componentType": 5126,
      "count": 4,
      "max": [
        163.0,
        165.0,
        0.0
      ],
      "min": [
        -163.0,
        -165.0,
        0.0
      ],
      "type": "VEC3"
    },
    {
      "bufferView": 62,
      "byteOffset": 12,
      "componentType": 5126,
      "count": 4,
      "type": "VEC3"
    },
    {
      "bufferView": 62,
      "byteOffset": 24,
      "componentType": 5126,
      "count": 4,
      "type": "VEC2"
    },
    {
      "bufferView": 63,
      "componentType": 5125,
      "count": 6,
      "type": "SCALAR"
    },
    {
      "bufferView": 64,
      "componentType": 5126,
      "count": 4,
      "max": [
        163.0,
        165.0,
        0.0
      ],
      "min": [
        -163.0,
        -165.0,
        0.0
      ],
      "type": "VEC3"
    },
    {
      "bufferView": 64,
      "byteOffset": 12,
      "componentType": 5126,
      "count": 4,
      "type": "VEC3"
    },
    {
      "bufferView": 64,
      "byteOffset": 24,
      "componentType": 5126,
      "count": 4,
      "type": "VEC2"
    },
    {
      "bufferView": 65,
      "componentType": 5125,
      "count": 6,
      "type": "SCALAR"
    },
    {
      "bufferView": 66,
      "componentType": 5126,
      "count": 4,
      "max": [
        163.0,
        165.0,
        0.0
      ],
      "min": [
        -163.0,
        -165.0,
        0.0
      ],
      "type": "VEC3"
    },
    {
      "bufferView": 66,
      "byteOffset": 12,
      "componentType": 5126,
      "count": 4,
      "type": "VEC3"
    },
    {
      "bufferView": 66,
      "byteOffset": 24,
      "componentType": 5126,
      "count": 4,
      "type": "VEC2"
    },
    {
      "bufferView": 67,
      "componentType": 5125,
      "count": 6,
      "type": "SCALAR"
    },
    {
      "bufferView": 68,
      "componentType": 5126,
      "count": 4,
      "max": [
        163.0,
        165.0,
        0.0
      ],
      "min": [
        -163.0,
        -165.0,
        0.0
      ],
      "type": "VEC3"
    },
    {
      "bufferView": 68,
      "byteOffset": 12,
      "componentType": 5126,
      "count": 4,
      "type": "VEC3"
    },
    {
      "bufferView": 68,
      "byteOffset": 24,
      "componentType": 5126,
      "count": 4,
      "type": "VEC2"
    },
    {
      "bufferView": 69,
      "componentType": 5125,
      "count": 6,
      "type": "SCALAR"
    },
    {
      "bufferView": 70,
      "componentType": 5126,
      "count": 4,
      "max": [
        163.0,
        165.0,
        0.0
      ],
      "min": [
        -163.0,
        -165.0,
        0.0
      ],
      "type": "VEC3"
    },
    {
      "bufferView": 70,
      "byteOffset": 12,
      "componentType": 5126,
      "count": 4,
      "type": "VEC3"
    },
    {
      "bufferView": 70,
      "byteOffset": 24,
      "componentType": 5126,
      "count": 4,
      "type": "VEC2"
    },
    {
      "bufferView": 71,
      "componentType": 5125,
      "count": 6,
      "type": "SCALAR"
    },
    {
      "bufferView": 72,
      "componentType": 5126,
      "count": 4,
      "max": [
        163.0,
        165.0,
        0.0
      ],
      "min": [
        -163.0,
        -165.0,
        0.0
      ],
      "type": "VEC3"
    },
    {
      "bufferView": 72,
      "byteOffset": 12,
      "componentType": 5126,
      "count": 4,
      "type": "VEC3"
    },
    {
      "bufferView": 72,
      "byteOffset": 24,
      "componentType": 5126,
      "count": 4,
      "type": "VEC2"
    },
    {
      "bufferView": 73,
      "componentType": 5125,
      "count": 6,
      "type": "SCALAR"
    },
    {
      "bufferView": 74,
      "componentType": 5126,
      "count": 4,
      "max": [
        163.0,
        165.0,
        0.0
      ],
      "min": [
        -163.0,
        -165.0,
        0.0
      ],
      "type": "VEC3"
    },
    {
      "bufferView": 74,
      "byteOffset": 12,
      "componentType": 5126,
      "count": 4,
      "type": "VEC3"
    },
    {
      "bufferView": 74,
      "byteOffset": 24,
      "componentType": 5126,
      "count": 4,
      "type": "VEC2"
    },
    {
      "bufferView": 75,
      "componentType": 5125,
      "count": 6,
      "type": "SCALAR"
    },
    {
      "bufferView": 76,
      "componentType": 5126,
      "count": 4,
      "max": [
        163.0,
        165.0,
        0.0
      ],
      "min": [
        -163.0,
        -165.0,
        0.0
      ],
      "type": "VEC3"
    },
    {
      "bufferView": 76,
      "byteOffset": 12,
      "componentType": 5126,
      "count": 4,
      "type": "VEC3"
    },
    {
      "bufferView": 76,
      "byteOffset": 24,
      "componentType": 5126,
      "count": 4,
      "type": "VEC2"
    },
    {
      "bufferView": 77,
      "componentType": 5125,
      "count": 6,
      "type": "SCALAR"
    },
    {
      "bufferView": 78,
      "componentType": 5126,
      "count": 4,
      "max": [
        163.0,
        165.0,
        0.0
      ],
      "min": [
        -163.0,
        -165.0,
        0.0
      ],
      "type": "VEC3"
    },
    {
      "bufferView": 78,
      "byteOffset": 12,
      "componentType": 5126,
      "count": 4,
      "type": "VEC3"
    },
    {
      "bufferView": 78,
      "byteOffset": 24,
      "componentType": 5126,
      "count": 4,
      "type": "VEC2"
    },
    {
      "bufferView": 79,
      "componentType": 5125,
      "count": 6,
      "type": "SCALAR"
    },
    {
      "bufferView": 80,
      "componentType": 5126,
      "count": 4,
      "max": [
        163.0,
        165.0,
        0.0
      ],
      "min": [
        -163.0,
        -165.0,
        0.0
      ],
      "type": "VEC3"
    },
    {
      "bufferView": 80,
      "byteOffset": 12,
      "componentType": 5126,
      "count": 4,
      "type": "VEC3"
    },
    {
      "bufferView": 80,
      "byteOffset": 24,
      "componentType": 5126,
      "count": 4,
      "type": "VEC2"
    },
    {
      "bufferView": 81,
      "componentType": 5125,
      "count": 6,
      "type": "SCALAR"
    },
    {
      "bufferView": 82,
      "componentType": 5126,
      "count": 4,
      "max": [
        163.0,
        165.0,
        0.0
      ],
      "min": [
        -163.0,
        -165.0,
        0.0
      ],
      "type": "VEC3"
    },
    {
      "bufferView": 82,
      "byteOffset": 12,
      "componentType": 5126,
      "count": 4,
      "type": "VEC3"
    },
    {
      "bufferView": 82,
      "byteOffset": 24,
      "componentType": 5126,
      "count": 4,
      "type": "VEC2"
    },
    {
      "bufferView": 83,
      "componentType": 5125,
      "count": 6,
      "type": "SCALAR"
    },
    {
      "bufferView": 84,
      "componentType": 5126,
      "count": 4,
      "max": [
        163.0,
        165.0,
        0.0
      ],
      "min": [
        -163.0,
        -165.0,
        0.0
      ],
      "type": "VEC3"
    },
    {
      "bufferView": 84,
      "byteOffset": 12,
      "componentType": 5126,
      "count": 4,
      "type": "VEC3"
    },
    {
      "bufferView": 84,
      "byteOffset": 24,
      "componentType": 5126,
      "count": 4,
      "type": "VEC2"
    },
    {
      "bufferView": 85,
      "componentType": 5125,
      "count": 6,
      "type": "SCALAR"
    },
    {
      "bufferView": 86,
      "componentType": 5126,
      "count": 4,
      "max": [
        163.0,
        165.0,
        0.0
      ],
      "min": [
        -163.0,
        -165.0,
        0.0
      ],
      "type": "VEC3"
    },
    {
      "bufferView": 86,
      "byteOffset": 12,
      "componentType": 5126,
      "count": 4,
      "type": "VEC3"
    },
    {
      "bufferView": 86,
      "byteOffset": 24,
      "componentType": 5126,
      "count": 4,
      "type": "VEC2"
    },
    {
      "bufferView": 87,
      "componentType": 5125,
      "count": 6,
      "type": "SCALAR"
    },
    {
      "bufferView": 88,
      "componentType": 5126,
      "count": 4,
      "max": [
        163.0,
        165.0,
        0.0
      ],
      "min": [
        -163.0,
        -165.0,
        0.0
      ],
      "type": "VEC3"
    },
    {
      "bufferView": 88,
      "byteOffset": 12,
      "componentType": 5126,
      "count": 4,
      "type": "VEC3"
    },
    {
      "bufferView": 88,
      "byteOffset": 24,
      "componentType": 5126,
      "count": 4,
      "type": "VEC2"
    },
    {
      "bufferView": 89,
      "componentType": 5125,
      "count": 6,
      "type": "SCALAR"
    }
  ],
  "asset": {
    "version": "2.0"
  },
  "bufferViews": [
    {
      "buffer": 0,
      "byteLength": 128,
      "byteStride": 32,
      "target": 34962
    },
    {
      "buffer": 0,
      "byteLength": 24,
      "byteOffset": 128,
      "target": 34963
    },
    {
      "buffer": 0,
      "byteLength": 128,
      "byteOffset": 152,
      "byteStride": 32,
      "target": 34962
    },
    {
      "buffer": 0,
      "byteLength": 24,
      "byteOffset": 280,
      "target": 34963
    },
    {
      "buffer": 0,
      "byteLength": 128,
      "byteOffset": 304,
      "byteStride": 32,
      "target": 34962
    },
    {
      "buffer": 0,
      "byteLength": 24,
      "byteOffset": 432,
      "target": 34963
    },
    {
      "buffer": 0,
      "byteLength": 128,
      "byteOffset": 456,
      "byteStride": 32,
      "target": 34962
    },
    {
      "buffer": 0,
      "byteLength": 24,
      "byteOffset": 584,
      "target": 34963
    },
    {
      "buffer": 0,
      "byteLength": 128,
      "byteOffset": 608,
      "byteStride": 32,
      "target": 34962
    },
    {
      "buffer": 0,
      "byteLength": 24,
      "byteOffset": 736,
      "target": 34963
    },
    {
      "buffer": 0,
      "byteLength": 128,
      "byteOffset": 760,
      "byteStride": 32,
      "target": 34962
    },
    {
      "buffer": 0,
      "byteLength": 24,
      "byteOffset": 888,
      "target": 34963
    },
    {
      "buffer": 0,
      "byteLength": 128,
      "byteOffset": 912,
      "byteStride": 32,
      "target": 34962
    },
    {
      "buffer": 0,
      "byteLength": 24,
      "byteOffset": 1040,
      "target": 34963
    },
    {
      "buffer": 0,
      "byteLength": 128,
      "byteOffset": 1064,
      "byteStride": 32,
      "target": 34962
    },
    {
      "buffer": 0,
      "byteLength": 24,
      "byteOffset": 1192,
      "target": 34963
    },
    {
      "buffer": 0,
      "byteLength": 128,
      "byteOffset": 1216,
      "byteStride": 32,
      "target": 34962
    },
    {
      "buffer": 0,
      "byteLength": 24,
      "byteOffset": 1344,
      "target": 34963
    },
    {
      "buffer": 0,
      "byteLength": 128,
      "byteOffset": 1368,
      "byteStride": 32,
      "target": 34962
    },
    {
      "buffer": 0,
      "byteLength": 24,
      "byteOffset": 1496,
      "target": 34963
    },
    {
      "buffer": 0,
      "byteLength": 128,
      "byteOffset": 1520,
      "byteStride": 32,
      "target": 34962
    },
    {
      "buffer": 0,
      "byteLength": 24,
      "byteOffset": 1648,
      "target": 34963
    },
    {
      "buffer": 0,
      "byteLength": 128,
      "byteOffset": 1672,
      "byteStride": 32,
      "target": 34962
    },
    {
      "buffer": 0,
      "byteLength": 24,
      "byteOffset": 1800,
      "target": 34963
    },
    {
      "buffer": 0,
      "byteLength": 128,
      "byteOffset": 1824,
      "byteStride": 32,
      "target": 34962
    },
    {
      "buffer": 0,
      "byteLength": 24,
      "byteOffset": 1952,
      "target": 34963
    },
    {
      "buffer": 0,
      "byteLength": 128,
      "byteOffset": 1976,
      "byteStride": 32,
      "target": 34962
    },
    {
      "buffer": 0,
      "byteLength": 24,
      "byteOffset": 2104,
      "target": 34963
    },
    {
      "buffer": 0,
      "byteLength": 128,
      "byteOffset": 2128,
      "byteStride": 32,
      "target": 34962
    },
    {
      "buffer": 0,
      "byteLength": 24,
      "byteOffset": 2256,
      "target": 34963
    },
    {
      "buffer": 0,
      "byteLength": 128,
      "byteOffset": 2280,
      "byteStride": 32,
      "target": 34962
    },
    {
      "buffer": 0,
      "byteLength": 24,
      "byteOffset": 2408,
      "target": 34963
    },
    {
      "buffer": 0,
      "byteLength": 128,
      "byteOffset": 2432,
      "byteStride": 32,
      "target": 34962
    },
    {
      "buffer": 0,
      "byteLength": 24,
      "byteOffset": 2560,
      "target": 34963
    },
    {
      "buffer": 0,
      "byteLength": 128,
      "byteOffset": 2584,
      "byteStride": 32,
      "target": 34962
    },
    {
      "buffer": 0,
      "byteLength": 24,
      "byteOffset": 2712,
      "target": 34963
    },
    {
      "buffer": 0,
      "byteLength": 128,
      "byteOffset": 2736,
      "byteStride": 32,
      "target": 34962
    },
    {
      "buffer": 0,
      "byteLength": 24,
      "byteOffset": 2864,
      "target": 34963
    },
    {
      "buffer": 0,
      "byteLength": 128,
      "byteOffset": 2888,
      "byteStride": 32,
      "target": 34962
    },
    {
      "buffer": 0,
      "byteLength": 24,
      "byteOffset": 3016,
      "target": 34963
    },
    {
      "buffer": 0,
      "byteLength": 128,
      "byteOffset": 3040,
      "byteStride": 32,
      "target": 34962
    },
    {
      "buffer": 0,
      "byteLength": 24,
      "byteOffset": 3168,
      "target": 34963
    },
    {
      "buffer": 0,
      "byteLength": 128,
      "byteOffset": 3192,
      "byteStride": 32,
      "target": 34962
    },
    {
      "buffer": 0,
      "byteLength": 24,
      "byteOffset": 3320,
      "target": 34963
    },
    {
      "buffer": 0,
      "byteLength": 128,
      "byteOffset": 3344,
      "byteStride": 32,
      "target": 34962
    },
    {
      "buffer": 0,
      "byteLength": 24,
      "byteOffset": 3472,
      "target": 34963
    },
    {
      "buffer": 0,
      "byteLength": 128,
      "byteOffset": 3496,
      "byteStride": 32,
      "target": 34962
    },
    {
      "buffer": 0,
      "byteLength": 24,
      "byteOffset": 3624,
      "target": 34963
    },
    {
      "buffer": 0,
      "byteLength": 128,
      "byteOffset": 3648,
      "byteStride": 32,
      "target": 34962
    },
    {
      "buffer": 0,
      "byteLength": 24,
      "byteOffset": 3776,
      "target": 34963
    },
    {
      "buffer": 0,
      "byteLength": 128,
      "byteOffset": 3800,
      "byteStride": 32,
      "target": 34962
    },
    {
      "buffer": 0,
      "byteLength": 24,
      "byteOffset": 3928,
      "target": 34963
    },
    {
      "buffer": 0,
      "byteLength": 128,
      "byteOffset": 3952,
      "byteStride": 32,
      "target": 34962
    },
    {
      "buffer": 0,
      "byteLength": 24,
      "byteOffset": 4080,
      "target": 34963
    },
    {
      "buffer": 0,
      "byteLength": 128,
      "byteOffset": 4104,
      "byteStride": 32,
      "target": 34962
    },
    {
      "buffer": 0,
      "byteLength": 24,
      "byteOffset": 4232,
      "target": 34963
    },
    {
      "buffer": 0,
      "byteLength": 128,
      "byteOffset": 4256,
      "byteStride": 32,
      "target": 34962
    },
    {
      "buffer": 0,
      "byteLength": 24,
      "byteOffset": 4384,
      "target": 34963
    },
    {
      "buffer": 0,
      "byteLength": 128,
      "byteOffset": 4408,
      "byteStride": 32,
      "target": 34962
    },
    {
      "buffer": 0,
      "byteLength": 24,
      "byteOffset": 4536,
      "target": 34963
    },
    {
      "buffer": 0,
      "byteLength": 128,
      "byteOffset": 4560,
      "byteStride": 32,
      "target": 34962
    },
    {
      "buffer": 0,
      "byteLength": 24,
      "byteOffset": 4688,
      "target": 34963
    },
    {
      "buffer": 0,
      "byteLength": 128,
      "byteOffset": 4712,
      "byteStride": 32,
      "target": 34962
    },
    {
      "buffer": 0,
      "byteLength": 24,
      "byteOffset": 4840,
      "target": 34963
    },
    {
      "buffer": 0,
      "byteLength": 128,
      "byteOffset": 4864,
      "byteStride": 32,
      "target": 34962
    },
    {
      "buffer": 0,
      "byteLength": 24,
      "byteOffset": 4992,
      "target": 34963
    },
    {
      "buffer": 0,
      "byteLength": 128,
      "byteOffset": 5016,
      "byteStride": 32,
      "target": 34962
    },
    {
      "buffer": 0,
      "byteLength": 24,
      "byteOffset": 5144,
      "target": 34963
    },
    {
      "buffer": 0,
      "byteLength": 128,
      "byteOffset": 5168,
      "byteStride": 32,
      "target": 34962
    },
    {
      "buffer": 0,
      "byteLength": 24,
      "byteOffset": 5296,
      "target": 34963
    },
    {
      "buffer": 0,
      "byteLength": 128,
      "byteOffset": 5320,
      "byteStride": 32,
      "target": 34962
    },
    {
      "buffer": 0,
      "byteLength": 24,
      "byteOffset": 5448,
      "target": 34963
    },
    {
      "buffer": 0,
      "byteLength": 128,
      "byteOffset": 5472,
      "byteStride": 32,
      "target": 34962
    },
    {
      "buffer": 0,
      "byteLength": 24,
      "byteOffset": 5600,
      "target": 34963
    },
    {
      "buffer": 0,
      "byteLength": 128,
      "byteOffset": 5624,
      "byteStride": 32,
      "target": 34962
    },
    {
      "buffer": 0,
      "byteLength": 24,
      "byteOffset": 5752,
      "target": 34963
    },
    {
      "buffer": 0,
      "byteLength": 128,
      "byteOffset": 5776,
      "byteStride": 32,
      "target": 34962
    },
    {
      "buffer": 0,
      "byteLength": 24,
      "byteOffset": 5904,
      "target": 34963
    },
    {
      "buffer": 0,
      "byteLength": 128,
      "byteOffset": 5928,
      "byteStride": 32,
      "target": 34962
    },
    {
      "buffer": 0,
      "byteLength": 24,
      "byteOffset": 6056,
      "target": 34963
    },
    {
      "buffer": 0,
      "byteLength": 128,
      "byteOffset": 6080,
      "byteStride": 32,
      "target": 34962
    },
    {
      "buffer": 0,
      "byteLength": 24,
      "byteOffset": 6208,
      "target": 34963
    },
    {
      "buffer": 0,
      "byteLength": 128,
      "byteOffset": 6232,
      "byteStride": 32,
      "target": 34962
    },
    {
      "buffer": 0,
      "byteLength": 24,
      "byteOffset": 6360,
      "target": 34963
    },
    {
      "buffer": 0,
      "byteLength": 128,
      "byteOffset": 6384,
      "byteStride": 32,
      "target": 34962
    },
    {
      "buffer": 0,
      "byteLength": 24,
      "byteOffset": 6512,
      "target": 34963
    },
    {
      "buffer": 0,
      "byteLength": 128,
      "byteOffset": 6536,
      "byteStride": 32,
      "target": 34962
    },
    {
      "buffer": 0,
      "byteLength": 24,
      "byteOffset": 6664,
      "target": 34963
    },
    {
      "buffer": 0,
      "byteLength": 128,
      "byteOffset": 6688,
      "byteStride": 32,
      "target": 34962
    },
    {
      "buffer": 0,
      "byteLength": 24,
      "byteOffset": 6816,
      "target": 34963
    }
  ],
  "buffers": [
    {
      "byteLength": 6840,
      "uri": "button.bin"
    }
  ],
  "images": [
    {
      "uri": "button.png"
    },
    {
      "uri": "Buttonbasecolortexture.png"
    }
  ],
  "materials": [
    {
      "alphaMode": "BLEND",
      "emissiveFactor": [
        0.45971599221229553,
        0.45971599221229553,
        0.45971599221229553
      ],
      "emissiveTexture": {
        "index": 0
      },
      "name": "Button",
      "pbrMetallicRoughness": {
        "baseColorTexture": {
          "index": 1
        },
        "metallicFactor": 0.0
      }
    }
  ],
  "meshes": [
    {
      "name": "Button001",
      "primitives": [
        {
          "attributes": {
            "NORMAL": 1,
            "POSITION": 0,
            "TEXCOORD_0": 2
          },
          "indices": 3,
          "material": 0,
          "mode": 4
        }
      ]
    },
    {
      "name": "Button000",
      "primitives": [
        {
          "attributes": {
            "NORMAL": 5,
            "POSITION": 4,
            "TEXCOORD_0": 6
          },
          "indices": 7,
          "material": 0,
          "mode": 4
        }
      ]
    },
    {
      "name": "Button039",
      "primitives": [
        {
          "attributes": {
            "NORMAL": 9,
            "POSITION": 8,
            "TEXCOORD_0": 10
          },
          "indices": 11,
          "material": 0,
          "mode": 4
        }
      ]
    },
    {
      "name": "Button040",
      "primitives": [
        {
          "attributes": {
            "NORMAL": 13,
            "POSITION": 12,
            "TEXCOORD_0": 14
          },
          "indices": 15,
          "material": 0,
          "mode": 4
        }
      ]
    },
    {
      "name": "Button041",
      "primitives": [
        {
          "attributes": {
            "NORMAL": 17,
            "POSITION": 16,
            "TEXCOORD_0": 18
          },
          "indices": 19,
          "material": 0,
          "mode": 4
        }
      ]
    },
    {
      "name": "Button042",
      "primitives": [
        {
          "attributes": {
            "NORMAL": 21,
            "POSITION": 20,
            "TEXCOORD_0": 22
          },
          "indices": 23,
          "material": 0,
          "mode": 4
        }
      ]
    },
    {
      "name": "Button043",
      "primitives": [
        {
          "attributes": {
            "NORMAL": 25,
            "POSITION": 24,
            "TEXCOORD_0": 26
          },
          "indices": 27,
          "material": 0,
          "mode": 4
        }
      ]
    },
    {
      "name": "Button044",
      "primitives": [
        {
          "attributes": {
            "NORMAL": 29,
            "POSITION": 28,
            "TEXCOORD_0": 30
          },
          "indices": 31,
          "material": 0,
          "mode": 4
        }
      ]
    },
    {
      "name": "Button002",
      "primitives": [
        {
          "attributes": {
            "NORMAL": 33,
            "POSITION": 32,
            "TEXCOORD_0": 34
          },
          "indices": 35,
          "material": 0,
          "mode": 4
        }
      ]
    },
    {
      "name": "Button003",
      "primitives": [
        {
          "attributes": {
            "NORMAL": 37,
            "POSITION": 36,
            "TEXCOORD_0": 38
          },
          "indices": 39,
          "material": 0,
          "mode": 4
        }
      ]
    },
    {
      "name": "Button004",
      "primitives": [
        {
          "attributes": {
            "NORMAL": 41,
            "POSITION": 40,
            "TEXCOORD_0": 42
          },
          "indices": 43,
          "material": 0,
          "mode": 4
        }
      ]
    },
    {
      "name": "Button005",
      "primitives": [
        {
          "attributes": {
            "NORMAL": 45,
            "POSITION": 44,
            "TEXCOORD_0": 46
          },
          "indices": 47,
          "material": 0,
          "mode": 4
        }
      ]
    },
    {
      "name": "Button008",
      "primitives": [
        {
          "attributes": {
            "NORMAL": 49,
            "POSITION": 48,
            "TEXCOORD_0": 50
          },
          "indices": 51,
          "material": 0,
          "mode": 4
        }
      ]
    },
    {
      "name": "Button012",
      "primitives": [
        {
          "attributes": {
            "NORMAL": 53,
            "POSITION": 52,
            "TEXCOORD_0": 54
          },
          "indices": 55,
          "material": 0,
          "mode": 4
        }
      ]
    },
    {
      "name": "Button011",
      "primitives": [
        {
          "attributes": {
            "NORMAL": 57,
            "POSITION": 56,
            "TEXCOORD_0": 58
          },
          "indices": 59,
          "material": 0,
          "mode": 4
        }
      ]
    },
    {
      "name": "Button006",
      "primitives": [
        {
          "attributes": {
            "NORMAL": 61,
            "POSITION": 60,
            "TEXCOORD_0": 62
          },
          "indices": 63,
          "material": 0,
          "mode": 4
        }
      ]
    },
    {
      "name": "Button007",
      "primitives": [
        {
          "attributes": {
            "NORMAL": 65,
            "POSITION": 64,
            "TEXCOORD_0": 66
          },
          "indices": 67,
          "material": 0,
          "mode": 4
        }
      ]
    },
    {
      "name": "Button013",
      "primitives": [
        {
          "attributes": {
            "NORMAL": 69,
            "POSITION": 68,
            "TEXCOORD_0": 70
          },
          "indices": 71,
          "material": 0,
          "mode": 4
        }
      ]
    },
    {
      "name": "Button009",
      "primitives": [
        {
          "attributes": {
            "NORMAL": 73,
            "POSITION": 72,
            "TEXCOORD_0": 74
          },
          "indices": 75,
          "material": 0,
          "mode": 4
        }
      ]
    },
    {
      "name": "Button010",
      "primitives": [
        {
          "attributes": {
            "NORMAL": 77,
            "POSITION": 76,
            "TEXCOORD_0": 78
          },
          "indices": 79,
          "material": 0,
          "mode": 4
        }
      ]
    },
    {
      "name": "Button015",
      "primitives": [
        {
          "attributes": {
            "NORMAL": 81,
            "POSITION": 80,
            "TEXCOORD_0": 82
          },
          "indices": 83,
          "material": 0,
          "mode": 4
        }
      ]
    },
    {
      "name": "Button016",
      "primitives": [
        {
          "attributes": {
            "NORMAL": 85,
            "POSITION": 84,
            "TEXCOORD_0": 86
          },
          "indices": 87,
          "material": 0,
          "mode": 4
        }
      ]
    },
    {
      "name": "Button017",
      "primitives": [
        {
          "attributes": {
            "NORMAL": 89,
            "POSITION": 88,
            "TEXCOORD_0": 90
          },
          "indices": 91,
          "material": 0,
          "mode": 4
        }
      ]
    },
    {
      "name": "Button018",
      "primitives": [
        {
          "attributes": {
            "NORMAL": 93,
            "POSITION": 92,
            "TEXCOORD_0": 94
          },
          "indices": 95,
          "material": 0,
          "mode": 4
        }
      ]
    },
    {
      "name": "Button019",
      "primitives": [
        {
          "attributes": {
            "NORMAL": 97,
            "POSITION": 96,
            "TEXCOORD_0": 98
          },
          "indices": 99,
          "material": 0,
          "mode": 4
        }
      ]
    },
    {
      "name": "Button020",
      "primitives": [
        {
          "attributes": {
            "NORMAL": 101,
            "POSITION": 100,
            "TEXCOORD_0": 102
          },
          "indices": 103,
          "material": 0,
          "mode": 4
        }
      ]
    },
    {
      "name": "Button021",
      "primitives": [
        {
          "attributes": {
            "NORMAL": 105,
            "POSITION": 104,
            "TEXCOORD_0": 106
          },
          "indices": 107,
          "material": 0,
          "mode": 4
        }
      ]
    },
    {
      "name": "Button022",
      "primitives": [
        {
          "attributes": {
            "NORMAL": 109,
            "POSITION": 108,
            "TEXCOORD_0": 110
          },
          "indices": 111,
          "material": 0,
          "mode": 4
        }
      ]
    },
    {
      "name": "Button023",
      "primitives": [
        {
          "attributes": {
            "NORMAL": 113,
            "POSITION": 112,
            "TEXCOORD_0": 114
          },
          "indices": 115,
          "material": 0,
          "mode": 4
        }
      ]
    },
    {
      "name": "Button024",
      "primitives": [
        {
          "attributes": {
            "NORMAL": 117,
            "POSITION": 116,
            "TEXCOORD_0": 118
          },
          "indices": 119,
          "material": 0,
          "mode": 4
        }
      ]
    },
    {
      "name": "Button025",
      "primitives": [
        {
          "attributes": {
            "NORMAL": 121,
            "POSITION": 120,
            "TEXCOORD_0": 122
          },
          "indices": 123,
          "material": 0,
          "mode": 4
        }
      ]
    },
    {
      "name": "Button026",
      "primitives": [
        {
          "attributes": {
            "NORMAL": 125,
            "POSITION": 124,
            "TEXCOORD_0": 126
          },
          "indices": 127,
          "material": 0,
          "mode": 4
        }
      ]
    },
    {
      "name": "Button027",
      "primitives": [
        {
          "attributes": {
            "NORMAL": 129,
            "POSITION": 128,
            "TEXCOORD_0": 130
          },
          "indices": 131,
          "material": 0,
          "mode": 4
        }
      ]
    },
    {
      "name": "Button028",
      "primitives": [
        {
          "attributes": {
            "NORMAL": 133,
            "POSITION": 132,
            "TEXCOORD_0": 134
          },
          "indices": 135,
          "material": 0,
          "mode": 4
        }
      ]
    },
    {
      "name": "Button029",
      "primitives": [
        {
          "attributes": {
            "NORMAL": 137,
            "POSITION": 136,
            "TEXCOORD_0": 138
          },
          "indices": 139,
          "material": 0,
          "mode": 4
        }
      ]
    },
    {
      "name": "Button030",
      "primitives": [
        {
          "attributes": {
            "NORMAL": 141,
            "POSITION": 140,
            "TEXCOORD_0": 142
          },
          "indices": 143,
          "material": 0,
          "mode": 4
        }
      ]
    },
    {
      "name": "Button032",
      "primitives": [
        {
          "attributes": {
            "NORMAL": 145,
            "POSITION": 144,
            "TEXCOORD_0": 146
          },
          "indices": 147,
          "material": 0,
          "mode": 4
        }
      ]
    },
    {
      "name": "Button033",
      "primitives": [
        {
          "attributes": {
            "NORMAL": 149,
            "POSITION": 148,
            "TEXCOORD_0": 150
          },
          "indices": 151,
          "material": 0,
          "mode": 4
        }
      ]
    },
    {
      "name": "Button034",
      "primitives": [
        {
          "attributes": {
            "NORMAL": 153,
            "POSITION": 152,
            "TEXCOORD_0": 154
          },
          "indices": 155,
          "material": 0,
          "mode": 4
        }
      ]
    },
    {
      "name": "Button031",
      "primitives": [
        {
          "attributes": {
            "NORMAL": 157,
            "POSITION": 156,
            "TEXCOORD_0": 158
          },
          "indices": 159,
          "material": 0,
          "mode": 4
        }
      ]
    },
    {
      "name": "Button035",
      "primitives": [
        {
          "attributes": {
            "NORMAL": 161,
            "POSITION": 160,
            "TEXCOORD_0": 162
          },
          "indices": 163,
          "material": 0,
          "mode": 4
        }
      ]
    },
    {
      "name": "Button038",
      "primitives": [
        {
          "attributes": {
            "NORMAL": 165,
            "POSITION": 164,
            "TEXCOORD_0": 166
          },
          "indices": 167,
          "material": 0,
          "mode": 4
        }
      ]
    },
    {
      "name": "Button037",
      "primitives": [
        {
          "attributes": {
            "NORMAL": 169,
            "POSITION": 168,
            "TEXCOORD_0": 170
          },
          "indices": 171,
          "material": 0,
          "mode": 4
        }
      ]
    },
    {
      "name": "Button036",
      "primitives": [
        {
          "attributes": {
            "NORMAL": 173,
            "POSITION": 172,
            "TEXCOORD_0": 174
          },
          "indices": 175,
          "material": 0,
          "mode": 4
        }
      ]
    },
    {
      "name": "Button045",
      "primitives": [
        {
          "attributes": {
            "NORMAL": 177,
            "POSITION": 176,
            "TEXCOORD_0": 178
          },
          "indices": 179,
          "material": 0,
          "mode": 4
        }
      ]
    }
  ],
  "nodes": [
    {
      "matrix": [
        0.001,
        0.0,
        0.0,
        0.0,
        0.0,
        0.001,
        0.0,
        0.0,
        0.0,
        0.0,
        0.001,
        0.0,
        0.0,
        0.0,
        0.0,
        1.0
      ],
      "mesh": 0,
      "name": "Button001"
    },
    {
      "children": [
        0
      ],
      "matrix": [
        -0.5999999642372131,
        0.0,
        -5.245366452300004e-08,
        0.0,
        8.545787402649153e-15,
        0.5999999642372131,
        -9.775240528142604e-08,
        0.0,
        5.245366452300004e-08,
        -9.775240528142604e-08,
        -0.5999999642372131,
        0.0,
        2.01704541015625,
        0.9214935302734375,
        -0.37280010986328127,
        1.0
      ]
    },
    {
      "matrix": [
        0.001,
        0.0,
        0.0,
        0.0,
        0.0,
        0.001,
        0.0,
        0.0,
        0.0,
        0.0,
        0.001,
        0.0,
        0.0,
        0.0,
        0.0,
        1.0
      ],
      "mesh": 1,
      "name": "Button000"
    },
    {
      "children": [
        2
      ],
      "matrix": [
        -0.5999999642372131,
        0.0,
        -3.38555935286422e-07,
        0.0,
        5.5157765697531544e-14,
        0.5999999642372131,
        -9.775240528142604e-08,
        0.0,
        3.38555935286422e-07,
        -9.775240528142604e-08,
        -0.5999999642372131,
        0.0,
        6.515701171875,
        1.6,
        -0.141920654296875,
        1.0
      ]
    },
    {
      "matrix": [
        0.001,
        0.0,
        0.0,
        0.0,
        0.0,
        0.001,
        0.0,
        0.0,
        0.0,
        0.0,
        0.001,
        0.0,
        0.0,
        0.0,
        0.0,
        1.0
      ],
      "mesh": 2,
      "name": "Button039"
    },
    {
      "children": [
        4
      ],
      "matrix": [
        -0.5999999642372131,
        0.0,
        -9.059747441142461e-08,
        0.0,
        3.636032582876938e-14,
        0.5999999642372131,
        -2.40803530004996e-07,
        0.0,
        9.059747441142461e-08,
        -2.40803530004996e-07,
        -0.5999999642372131,
        0.0,
        4.748728515625,
        0.65,
        -7.4707939453125,
        1.0
      ]
    },
    {
      "matrix": [
        0.001,
        0.0,
        0.0,
        0.0,
        0.0,
        0.001,
        0.0,
        0.0,
        0.0,
        0.0,
        0.001,
        0.0,
        0.0,
        0.0,
        0.0,
        1.0
      ],
      "mesh": 3,
      "name": "Button040"
    },
    {
      "children": [
        6
      ],
      "matrix": [
        7.154927761376939e-09,
        0.0,
        0.5999999642372131,
        0.0,
        -2.40803530004996e-07,
        0.5999999642372131,
        2.8715534995411157e-15,
        0.0,
        -0.5999999642372131,
        -2.40803530004996e-07,
        7.154927761376939e-09,
        0.0,
        5.9294375,
        0.65,
        -8.28648828125,
        1.0
      ]
    },
    {
      "matrix": [
        0.001,
        0.0,
        0.0,
        0.0,
        0.0,
        0.001,
        0.0,
        0.0,
        0.0,
        0.0,
        0.001,
        0.0,
        0.0,
        0.0,
        0.0,
        1.0
      ],
      "mesh": 4,
      "name": "Button041"
    },
    {
      "children": [
        8
      ],
      "matrix": [
        0.5999999642372131,
        0.0,
        -1.049073290460001e-07,
        0.0,
        4.210342605158804e-14,
        0.5999999642372131,
        2.40803530004996e-07,
        0.0,
        1.049073290460001e-07,
        -2.40803530004996e-07,
        0.5999999642372131,
        0.0,
        4.1902509765625,
        1.2591494140625,
        -6.2663730468750005,
        1.0
      ]
    },
    {
      "matrix": [
        0.001,
        0.0,
        0.0,
        0.0,
        0.0,
        0.001,
        0.0,
        0.0,
        0.0,
        0.0,
        0.001,
        0.0,
        0.0,
        0.0,
        0.0,
        1.0
      ],
      "mesh": 5,
      "name": "Button042"
    },
    {
      "children": [
        10
      ],
      "matrix": [
        8.344255064685058e-08,
        0.0,
        -0.5999999642372131,
        0.0,
        2.40803530004996e-07,
        0.5999999642372131,
        3.348876894109648e-14,
        0.0,
        0.5999999642372131,
        -2.40803530004996e-07,
        8.344255064685058e-08,
        0.0,
        -1.7814332275390625,
        0.8,
        -6.0223564453125,
        1.0
      ]
    },
    {
      "matrix": [
        0.001,
        0.0,
        0.0,
        0.0,
        0.0,
        0.001,
        0.0,
        0.0,
        0.0,
        0.0,
        0.001,
        0.0,
        0.0,
        0.0,
        0.0,
        1.0
      ],
      "mesh": 6,
      "name": "Button043"
    },
    {
      "children": [
        12
      ],
      "matrix": [
        8.344255064685058e-08,
        0.0,
        -0.5999999642372131,
        0.0,
        2.40803530004996e-07,
        0.5999999642372131,
        3.348876894109648e-14,
        0.0,
        0.5999999642372131,
        -2.40803530004996e-07,
        8.344255064685058e-08,
        0.0,
        -1.7814332275390625,
        0.8,
        -3.72001904296875,
        1.0
      ]
    },
    {
      "matrix": [
        0.001,
        0.0,
        0.0,
        0.0,
        0.0,
        0.001,
        0.0,
        0.0,
        0.0,
        0.0,
        0.001,
        0.0,
        0.0,
        0.0,
        0.0,
        1.0
      ],
      "mesh": 7,
      "name": "Button044"
    },
    {
      "children": [
        14
      ],
      "matrix": [
        8.344255064685058e-08,
        0.0,
        -0.5999999642372131,
        0.0,
        2.40803530004996e-07,
        0.5999999642372131,
        3.348876894109648e-14,
        0.0,
        0.5999999642372131,
        -2.40803530004996e-07,
        8.344255064685058e-08,
        0.0,
        -1.7814332275390625,
        0.8,
        -1.784775634765625,
        1.0
      ]
    },
    {
      "matrix": [
        0.001,
        0.0,
        0.0,
        0.0,
        0.0,
        0.001,
        0.0,
        0.0,
        0.0,
        0.0,
        0.001,
        0.0,
        0.0,
        0.0,
        0.0,
        1.0
      ],
      "mesh": 8,
      "name": "Button002"
    },
    {
      "children": [
        16
      ],
      "matrix": [
        -9.775240528142605e-08,
        0.0,
        0.5999999642372131,
        0.0,
        -2.4080353000499604e-07,
        0.5999999642372131,
        -3.923187594017871e-14,
        0.0,
        -0.5999999642372131,
        -2.4080353000499604e-07,
        -9.775240528142605e-08,
        0.0,
        8.571638671875,
        0.6,
        -1.13796142578125,
        1.0
      ]
    },
    {
      "matrix": [
        0.001,
        0.0,
        0.0,
        0.0,
        0.0,
        0.001,
        0.0,
        0.0,
        0.0,
        0.0,
        0.001,
        0.0,
        0.0,
        0.0,
        0.0,
        1.0
      ],
      "mesh": 9,
      "name": "Button003"
    },
    {
      "children": [
        18
      ],
      "matrix": [
        -9.775240528142605e-08,
        0.0,
        0.5999999642372131,
        0.0,
        -2.4080353000499604e-07,
        0.5999999642372131,
        -3.923187594017871e-14,
        0.0,
        -0.5999999642372131,
        -2.4080353000499604e-07,
        -9.775240528142605e-08,
        0.0,
        8.571638671875,
        0.6,
        -2.964515625,
        1.0
      ]
    },
    {
      "matrix": [
        0.001,
        0.0,
        0.0,
        0.0,
        0.0,
        0.001,
        0.0,
        0.0,
        0.0,
        0.0,
        0.001,
        0.0,
        0.0,
        0.0,
        0.0,
        1.0
      ],
      "mesh": 10,
      "name": "Button004"
    },
    {
      "children": [
        20
      ],
      "matrix": [
        -9.775240528142605e-08,
        0.0,
        0.5999999642372131,
        0.0,
        -2.4080353000499604e-07,
        0.5999999642372131,
        -3.923187594017871e-14,
        0.0,
        -0.5999999642372131,
        -2.4080353000499604e-07,
        -9.775240528142605e-08,
        0.0,
        8.571638671875,
        0.6,
        -4.3247685546875,
        1.0
      ]
    },
    {
      "matrix": [
        0.001,
        0.0,
        0.0,
        0.0,
        0.0,
        0.001,
        0.0,
        0.0,
        0.0,
        0.0,
        0.001,
        0.0,
        0.0,
        0.0,
        0.0,
        1.0
      ],
      "mesh": 11,
      "name": "Button005"
    },
    {
      "children": [
        22
      ],
      "matrix": [
        -9.775240528142605e-08,
        0.0,
        0.5999999642372131,
        0.0,
        -2.4080353000499604e-07,
        0.5999999642372131,
        -3.923187594017871e-14,
        0.0,
        -0.5999999642372131,
        -2.4080353000499604e-07,
        -9.775240528142605e-08,
        0.0,
        8.571638671875,
        0.6,
        -5.89209326171875,
        1.0
      ]
    },
    {
      "matrix": [
        0.001,
        0.0,
        0.0,
        0.0,
        0.0,
        0.001,
        0.0,
        0.0,
        0.0,
        0.0,
        0.001,
        0.0,
        0.0,
        0.0,
        0.0,
        1.0
      ],
      "mesh": 12,
      "name": "Button008"
    },
    {
      "children": [
        24
      ],
      "matrix": [
        -9.775240528142605e-08,
        0.0,
        0.5999999642372131,
        0.0,
        -2.4080353000499604e-07,
        0.5999999642372131,
        -3.923187594017871e-14,
        0.0,
        -0.5999999642372131,
        -2.4080353000499604e-07,
        -9.775240528142605e-08,
        0.0,
        8.571638671875,
        0.6,
        -11.311181640625,
        1.0
      ]
    },
    {
      "matrix": [
        0.001,
        0.0,
        0.0,
        0.0,
        0.0,
        0.001,
        0.0,
        0.0,
        0.0,
        0.0,
        0.001,
        0.0,
        0.0,
        0.0,
        0.0,
        1.0
      ],
      "mesh": 13,
      "name": "Button012"
    },
    {
      "children": [
        26
      ],
      "matrix": [
        -9.775240528142605e-08,
        0.0,
        0.5999999642372131,
        0.0,
        -2.4080353000499604e-07,
        0.5999999642372131,
        -3.923187594017871e-14,
        0.0,
        -0.5999999642372131,
        -2.4080353000499604e-07,
        -9.775240528142605e-08,
        0.0,
        8.571638671875,
        0.6,
        -16.56638671875,
        1.0
      ]
    },
    {
      "matrix": [
        0.001,
        0.0,
        0.0,
        0.0,
        0.0,
        0.001,
        0.0,
        0.0,
        0.0,
        0.0,
        0.001,
        0.0,
        0.0,
        0.0,
        0.0,
        1.0
      ],
      "mesh": 14,
      "name": "Button011"
    },
    {
      "children": [
        28
      ],
      "matrix": [
        -9.775240528142605e-08,
        0.0,
        0.5999999642372131,
        0.0,
        -2.4080353000499604e-07,
        0.5999999642372131,
        -3.923187594017871e-14,
        0.0,
        -0.5999999642372131,
        -2.4080353000499604e-07,
        -9.775240528142605e-08,
        0.0,
        8.571638671875,
        0.6,
        -15.388455078125,
        1.0
      ]
    },
    {
      "matrix": [
        0.001,
        0.0,
        0.0,
        0.0,
        0.0,
        0.001,
        0.0,
        0.0,
        0.0,
        0.0,
        0.001,
        0.0,
        0.0,
        0.0,
        0.0,
        1.0
      ],
      "mesh": 15,
      "name": "Button006"
    },
    {
      "children": [
        30
      ],
      "matrix": [
        -9.775240528142605e-08,
        0.0,
        0.5999999642372131,
        0.0,
        -2.4080353000499604e-07,
        0.5999999642372131,
        -3.923187594017871e-14,
        0.0,
        -0.5999999642372131,
        -2.4080353000499604e-07,
        -9.775240528142605e-08,
        0.0,
        8.571638671875,
        0.6,
        -8.26325390625,
        1.0
      ]
    },
    {
      "matrix": [
        0.001,
        0.0,
        0.0,
        0.0,
        0.0,
        0.001,
        0.0,
        0.0,
        0.0,
        0.0,
        0.001,
        0.0,
        0.0,
        0.0,
        0.0,
        1.0
      ],
      "mesh": 16,
      "name": "Button007"
    },
    {
      "children": [
        32
      ],
      "matrix": [
        -9.775240528142605e-08,
        0.0,
        0.5999999642372131,
        0.0,
        -2.4080353000499604e-07,
        0.5999999642372131,
        -3.923187594017871e-14,
        0.0,
        -0.5999999642372131,
        -2.4080353000499604e-07,
        -9.775240528142605e-08,
        0.0,
        8.571638671875,
        0.6,
        -9.822445312500001,
        1.0
      ]
    },
    {
      "matrix": [
        0.001,
        0.0,
        0.0,
        0.0,
        0.0,
        0.001,
        0.0,
        0.0,
        0.0,
        0.0,
        0.001,
        0.0,
        0.0,
        0.0,
        0.0,
        1.0
      ],
      "mesh": 17,
      "name": "Button013"
    },
    {
      "children": [
        34
      ],
      "matrix": [
        -9.775240528142605e-08,
        0.0,
        0.5999999642372131,
        0.0,
        -2.4080353000499604e-07,
        0.5999999642372131,
        -3.923187594017871e-14,
        0.0,
        -0.5999999642372131,
        -2.4080353000499604e-07,
        -9.775240528142605e-08,
        0.0,
        8.571638671875,
        0.6,
        -17.688453125,
        1.0
      ]
    },
    {
      "matrix": [
        0.001,
        0.0,
        0.0,
        0.0,
        0.0,
        0.001,
        0.0,
        0.0,
        0.0,
        0.0,
        0.001,
        0.0,
        0.0,
        0.0,
        0.0,
        1.0
      ],
      "mesh": 18,
      "name": "Button009"
    },
    {
      "children": [
        36
      ],
      "matrix": [
        -9.775240528142605e-08,
        0.0,
        0.5999999642372131,
        0.0,
        -2.4080353000499604e-07,
        0.5999999642372131,
        -3.923187594017871e-14,
        0.0,
        -0.5999999642372131,
        -2.4080353000499604e-07,
        -9.775240528142605e-08,
        0.0,
        8.571638671875,
        0.6,
        -13.107304687500001,
        1.0
      ]
    },
    {
      "matrix": [
        0.001,
        0.0,
        0.0,
        0.0,
        0.0,
        0.001,
        0.0,
        0.0,
        0.0,
        0.0,
        0.001,
        0.0,
        0.0,
        0.0,
        0.0,
        1.0
      ],
      "mesh": 19,
      "name": "Button010"
    },
    {
      "children": [
        38
      ],
      "matrix": [
        -9.775240528142605e-08,
        0.0,
        0.5999999642372131,
        0.0,
        -2.4080353000499604e-07,
        0.5999999642372131,
        -3.923187594017871e-14,
        0.0,
        -0.5999999642372131,
        -2.4080353000499604e-07,
        -9.775240528142605e-08,
        0.0,
        8.571638671875,
        0.6,
        -14.2677109375,
        1.0
      ]
    },
    {
      "matrix": [
        0.001,
        0.0,
        0.0,
        0.0,
        0.0,
        0.001,
        0.0,
        0.0,
        0.0,
        0.0,
        0.001,
        0.0,
        0.0,
        0.0,
        0.0,
        1.0
      ],
      "mesh": 20,
      "name": "Button015"
    },
    {
      "children": [
        40
      ],
      "matrix": [
        4.5298737205712314e-08,
        0.0,
        -0.5999999642372131,
        0.0,
        2.40803530004996e-07,
        0.5999999642372131,
        1.8180162914384693e-14,
        0.0,
        0.5999999642372131,
        -2.40803530004996e-07,
        4.5298737205712314e-08,
        0.0,
        6.222138671875,
        1.2,
        -17.4052265625,
        1.0
      ]
    },
    {
      "matrix": [
        0.001,
        0.0,
        0.0,
        0.0,
        0.0,
        0.001,
        0.0,
        0.0,
        0.0,
        0.0,
        0.001,
        0.0,
        0.0,
        0.0,
        0.0,
        1.0
      ],
      "mesh": 21,
      "name": "Button016"
    },
    {
      "children": [
        42
      ],
      "matrix": [
        4.5298737205712314e-08,
        0.0,
        -0.5999999642372131,
        0.0,
        2.40803530004996e-07,
        0.5999999642372131,
        1.8180162914384693e-14,
        0.0,
        0.5999999642372131,
        -2.40803530004996e-07,
        4.5298737205712314e-08,
        0.0,
        6.222138671875,
        1.2,
        -16.60905859375,
        1.0
      ]
    },
    {
      "matrix": [
        0.001,
        0.0,
        0.0,
        0.0,
        0.0,
        0.001,
        0.0,
        0.0,
        0.0,
        0.0,
        0.001,
        0.0,
        0.0,
        0.0,
        0.0,
        1.0
      ],
      "mesh": 22,
      "name": "Button017"
    },
    {
      "children": [
        44
      ],
      "matrix": [
        4.5298737205712314e-08,
        0.0,
        -0.5999999642372131,
        0.0,
        2.40803530004996e-07,
        0.5999999642372131,
        1.8180162914384693e-14,
        0.0,
        0.5999999642372131,
        -2.40803530004996e-07,
        4.5298737205712314e-08,
        0.0,
        6.222138671875,
        1.2,
        -15.8095361328125,
        1.0
      ]
    },
    {
      "matrix": [
        0.001,
        0.0,
        0.0,
        0.0,
        0.0,
        0.001,
        0.0,
        0.0,
        0.0,
        0.0,
        0.001,
        0.0,
        0.0,
        0.0,
        0.0,
        1.0
      ],
      "mesh": 23,
      "name": "Button018"
    },
    {
      "children": [
        46
      ],
      "matrix": [
        4.5298737205712314e-08,
        0.0,
        -0.5999999642372131,
        0.0,
        2.40803530004996e-07,
        0.5999999642372131,
        1.8180162914384693e-14,
        0.0,
        0.5999999642372131,
        -2.40803530004996e-07,
        4.5298737205712314e-08,
        0.0,
        3.336962890625,
        0.94151953125,
        -9.9193955078125,
        1.0
      ]
    },
    {
      "matrix": [
        0.001,
        0.0,
        0.0,
        0.0,
        0.0,
        0.001,
        0.0,
        0.0,
        0.0,
        0.0,
        0.001,
        0.0,
        0.0,
        0.0,
        0.0,
        1.0
      ],
      "mesh": 24,
      "name": "Button019"
    },
    {
      "children": [
        48
      ],
      "matrix": [
        -9.775240528142605e-08,
        0.0,
        0.5999999642372131,
        0.0,
        -2.4080353000499604e-07,
        0.5999999642372131,
        -3.923187594017871e-14,
        0.0,
        -0.5999999642372131,
        -2.4080353000499604e-07,
        -9.775240528142605e-08,
        0.0,
        6.0560498046875,
        1.2,
        -15.035255859375,
        1.0
      ]
    },
    {
      "matrix": [
        0.001,
        0.0,
        0.0,
        0.0,
        0.0,
        0.001,
        0.0,
        0.0,
        0.0,
        0.0,
        0.001,
        0.0,
        0.0,
        0.0,
        0.0,
        1.0
      ],
      "mesh": 25,
      "name": "Button020"
    },
    {
      "children": [
        50
      ],
      "matrix": [
        -9.775240528142605e-08,
        0.0,
        0.5999999642372131,
        0.0,
        -2.4080353000499604e-07,
        0.5999999642372131,
        -3.923187594017871e-14,
        0.0,
        -0.5999999642372131,
        -2.4080353000499604e-07,
        -9.775240528142605e-08,
        0.0,
        6.0560498046875,
        1.2,
        -15.878103515625,
        1.0
      ]
    },
    {
      "matrix": [
        0.001,
        0.0,
        0.0,
        0.0,
        0.0,
        0.001,
        0.0,
        0.0,
        0.0,
        0.0,
        0.001,
        0.0,
        0.0,
        0.0,
        0.0,
        1.0
      ],
      "mesh": 26,
      "name": "Button021"
    },
    {
      "children": [
        52
      ],
      "matrix": [
        -9.775240528142605e-08,
        0.0,
        0.5999999642372131,
        0.0,
        -2.4080353000499604e-07,
        0.5999999642372131,
        -3.923187594017871e-14,
        0.0,
        -0.5999999642372131,
        -2.4080353000499604e-07,
        -9.775240528142605e-08,
        0.0,
        6.0560498046875,
        1.2,
        -16.6731796875,
        1.0
      ]
    },
    {
      "matrix": [
        0.001,
        0.0,
        0.0,
        0.0,
        0.0,
        0.001,
        0.0,
        0.0,
        0.0,
        0.0,
        0.001,
        0.0,
        0.0,
        0.0,
        0.0,
        1.0
      ],
      "mesh": 27,
      "name": "Button022"
    },
    {
      "children": [
        54
      ],
      "matrix": [
        -9.775240528142605e-08,
        0.0,
        0.5999999642372131,
        0.0,
        -2.4080353000499604e-07,
        0.5999999642372131,
        -3.923187594017871e-14,
        0.0,
        -0.5999999642372131,
        -2.4080353000499604e-07,
        -9.775240528142605e-08,
        0.0,
        6.0560498046875,
        1.2,
        -17.4433828125,
        1.0
      ]
    },
    {
      "matrix": [
        0.001,
        0.0,
        0.0,
        0.0,
        0.0,
        0.001,
        0.0,
        0.0,
        0.0,
        0.0,
        0.001,
        0.0,
        0.0,
        0.0,
        0.0,
        1.0
      ],
      "mesh": 28,
      "name": "Button023"
    },
    {
      "children": [
        56
      ],
      "matrix": [
        0.5999999642372131,
        0.0,
        0.0,
        0.0,
        0.0,
        0.5999999642372131,
        3.123291207884904e-07,
        0.0,
        0.0,
        -3.123291207884904e-07,
        0.5999999642372131,
        0.0,
        5.80749365234375,
        1.2,
        -18.643744140625,
        1.0
      ]
    },
    {
      "matrix": [
        0.001,
        0.0,
        0.0,
        0.0,
        0.0,
        0.001,
        0.0,
        0.0,
        0.0,
        0.0,
        0.001,
        0.0,
        0.0,
        0.0,
        0.0,
        1.0
      ],
      "mesh": 29,
      "name": "Button024"
    },
    {
      "children": [
        58
      ],
      "matrix": [
        0.5999999642372131,
        0.0,
        0.0,
        0.0,
        0.0,
        0.5999999642372131,
        3.123291207884904e-07,
        0.0,
        0.0,
        -3.123291207884904e-07,
        0.5999999642372131,
        0.0,
        4.175025390625,
        1.2,
        -18.643744140625,
        1.0
      ]
    },
    {
      "matrix": [
        0.001,
        0.0,
        0.0,
        0.0,
        0.0,
        0.001,
        0.0,
        0.0,
        0.0,
        0.0,
        0.001,
        0.0,
        0.0,
        0.0,
        0.0,
        1.0
      ],
      "mesh": 30,
      "name": "Button025"
    },
    {
      "children": [
        60
      ],
      "matrix": [
        0.5999999642372131,
        0.0,
        0.0,
        0.0,
        0.0,
        0.5999999642372131,
        3.123291207884904e-07,
        0.0,
        0.0,
        -3.123291207884904e-07,
        0.5999999642372131,
        0.0,
        2.507900390625,
        1.2,
        -18.643744140625,
        1.0
      ]
    },
    {
      "matrix": [
        0.001,
        0.0,
        0.0,
        0.0,
        0.0,
        0.001,
        0.0,
        0.0,
        0.0,
        0.0,
        0.001,
        0.0,
        0.0,
        0.0,
        0.0,
        1.0
      ],
      "mesh": 31,
      "name": "Button026"
    },
    {
      "children": [
        62
      ],
      "matrix": [
        0.5999999642372131,
        0.0,
        0.0,
        0.0,
        0.0,
        0.5999999642372131,
        3.123291207884904e-07,
        0.0,
        0.0,
        -3.123291207884904e-07,
        0.5999999642372131,
        0.0,
        1.2984101562500001,
        1.2,
        -18.643744140625,
        1.0
      ]
    },
    {
      "matrix": [
        0.001,
        0.0,
        0.0,
        0.0,
        0.0,
        0.001,
        0.0,
        0.0,
        0.0,
        0.0,
        0.001,
        0.0,
        0.0,
        0.0,
        0.0,
        1.0
      ],
      "mesh": 32,
      "name": "Button027"
    },
    {
      "children": [
        64
      ],
      "matrix": [
        0.5999999642372131,
        0.0,
        0.0,
        0.0,
        0.0,
        0.5999999642372131,
        3.123291207884904e-07,
        0.0,
        0.0,
        -3.123291207884904e-07,
        0.5999999642372131,
        0.0,
        0.4265791015625,
        1.2,
        -18.643744140625,
        1.0
      ]
    },
    {
      "matrix": [
        0.001,
        0.0,
        0.0,
        0.0,
        0.0,
        0.001,
        0.0,
        0.0,
        0.0,
        0.0,
        0.001,
        0.0,
        0.0,
        0.0,
        0.0,
        1.0
      ],
      "mesh": 33,
      "name": "Button028"
    },
    {
      "children": [
        66
      ],
      "matrix": [
        0.5999999642372131,
        0.0,
        0.0,
        0.0,
        0.0,
        0.5999999642372131,
        3.123291207884904e-07,
        0.0,
        0.0,
        -3.123291207884904e-07,
        0.5999999642372131,
        0.0,
        -0.66089013671875,
        1.2,
        -18.643744140625,
        1.0
      ]
    },
    {
      "matrix": [
        0.001,
        0.0,
        0.0,
        0.0,
        0.0,
        0.001,
        0.0,
        0.0,
        0.0,
        0.0,
        0.001,
        0.0,
        0.0,
        0.0,
        0.0,
        1.0
      ],
      "mesh": 34,
      "name": "Button029"
    },
    {
      "children": [
        68
      ],
      "matrix": [
        4.5298737205712314e-08,
        0.0,
        -0.5999999642372131,
        0.0,
        2.40803530004996e-07,
        0.5999999642372131,
        1.8180162914384693e-14,
        0.0,
        0.5999999642372131,
        -2.40803530004996e-07,
        4.5298737205712314e-08,
        0.0,
        -1.80546044921875,
        1.2,
        -17.078056640625,
        1.0
      ]
    },
    {
      "matrix": [
        0.001,
        0.0,
        0.0,
        0.0,
        0.0,
        0.001,
        0.0,
        0.0,
        0.0,
        0.0,
        0.001,
        0.0,
        0.0,
        0.0,
        0.0,
        1.0
      ],
      "mesh": 35,
      "name": "Button030"
    },
    {
      "children": [
        70
      ],
      "matrix": [
        4.5298737205712314e-08,
        0.0,
        -0.5999999642372131,
        0.0,
        2.40803530004996e-07,
        0.5999999642372131,
        1.8180162914384693e-14,
        0.0,
        0.5999999642372131,
        -2.40803530004996e-07,
        4.5298737205712314e-08,
        0.0,
        -1.80546044921875,
        1.2,
        -16.06438671875,
        1.0
      ]
    },
    {
      "matrix": [
        0.001,
        0.0,
        0.0,
        0.0,
        0.0,
        0.001,
        0.0,
        0.0,
        0.0,
        0.0,
        0.001,
        0.0,
        0.0,
        0.0,
        0.0,
        1.0
      ],
      "mesh": 36,
      "name": "Button032"
    },
    {
      "children": [
        72
      ],
      "matrix": [
        4.5298737205712314e-08,
        0.0,
        -0.5999999642372131,
        0.0,
        2.40803530004996e-07,
        0.5999999642372131,
        1.8180162914384693e-14,
        0.0,
        0.5999999642372131,
        -2.40803530004996e-07,
        4.5298737205712314e-08,
        0.0,
        -1.80546044921875,
        1.2,
        -13.207947265625,
        1.0
      ]
    },
    {
      "matrix": [
        0.001,
        0.0,
        0.0,
        0.0,
        0.0,
        0.001,
        0.0,
        0.0,
        0.0,
        0.0,
        0.001,
        0.0,
        0.0,
        0.0,
        0.0,
        1.0
      ],
      "mesh": 37,
      "name": "Button033"
    },
    {
      "children": [
        74
      ],
      "matrix": [
        4.5298737205712314e-08,
        0.0,
        -0.5999999642372131,
        0.0,
        2.40803530004996e-07,
        0.5999999642372131,
        1.8180162914384693e-14,
        0.0,
        0.5999999642372131,
        -2.40803530004996e-07,
        4.5298737205712314e-08,
        0.0,
        -1.80546044921875,
        1.2,
        -12.010326171875,
        1.0
      ]
    },
    {
      "matrix": [
        0.001,
        0.0,
        0.0,
        0.0,
        0.0,
        0.001,
        0.0,
        0.0,
        0.0,
        0.0,
        0.001,
        0.0,
        0.0,
        0.0,
        0.0,
        1.0
      ],
      "mesh": 38,
      "name": "Button034"
    },
    {
      "children": [
        76
      ],
      "matrix": [
        4.5298737205712314e-08,
        0.0,
        -0.5999999642372131,
        0.0,
        2.40803530004996e-07,
        0.5999999642372131,
        1.8180162914384693e-14,
        0.0,
        0.5999999642372131,
        -2.40803530004996e-07,
        4.5298737205712314e-08,
        0.0,
        -1.80546044921875,
        1.2,
        -10.61878515625,
        1.0
      ]
    },
    {
      "matrix": [
        0.001,
        0.0,
        0.0,
        0.0,
        0.0,
        0.001,
        0.0,
        0.0,
        0.0,
        0.0,
        0.001,
        0.0,
        0.0,
        0.0,
        0.0,
        1.0
      ],
      "mesh": 39,
      "name": "Button031"
    },
    {
      "children": [
        78
      ],
      "matrix": [
        4.5298737205712314e-08,
        0.0,
        -0.5999999642372131,
        0.0,
        2.40803530004996e-07,
        0.5999999642372131,
        1.8180162914384693e-14,
        0.0,
        0.5999999642372131,
        -2.40803530004996e-07,
        4.5298737205712314e-08,
        0.0,
        -1.80546044921875,
        1.2,
        -14.7339453125,
        1.0
      ]
    },
    {
      "matrix": [
        0.001,
        0.0,
        0.0,
        0.0,
        0.0,
        0.001,
        0.0,
        0.0,
        0.0,
        0.0,
        0.001,
        0.0,
        0.0,
        0.0,
        0.0,
        1.0
      ],
      "mesh": 40,
      "name": "Button035"
    },
    {
      "children": [
        80
      ],
      "matrix": [
        4.5298737205712314e-08,
        0.0,
        -0.5999999642372131,
        0.0,
        2.40803530004996e-07,
        0.5999999642372131,
        1.8180162914384693e-14,
        0.0,
        0.5999999642372131,
        -2.40803530004996e-07,
        4.5298737205712314e-08,
        0.0,
        -1.80546044921875,
        1.2,
        -9.24897265625,
        1.0
      ]
    },
    {
      "matrix": [
        0.001,
        0.0,
        0.0,
        0.0,
        0.0,
        0.001,
        0.0,
        0.0,
        0.0,
        0.0,
        0.001,
        0.0,
        0.0,
        0.0,
        0.0,
        1.0
      ],
      "mesh": 41,
      "name": "Button038"
    },
    {
      "children": [
        82
      ],
      "matrix": [
        -0.5999999642372131,
        0.0,
        -9.059747441142461e-08,
        0.0,
        3.636032582876938e-14,
        0.5999999642372131,
        -2.40803530004996e-07,
        0.0,
        9.059747441142461e-08,
        -2.40803530004996e-07,
        -0.5999999642372131,
        0.0,
        1.8173045654296875,
        1.2,
        -7.4707939453125,
        1.0
      ]
    },
    {
      "matrix": [
        0.001,
        0.0,
        0.0,
        0.0,
        0.0,
        0.001,
        0.0,
        0.0,
        0.0,
        0.0,
        0.001,
        0.0,
        0.0,
        0.0,
        0.0,
        1.0
      ],
      "mesh": 42,
      "name": "Button037"
    },
    {
      "children": [
        84
      ],
      "matrix": [
        -0.5999999642372131,
        0.0,
        -9.059747441142461e-08,
        0.0,
        3.636032582876938e-14,
        0.5999999642372131,
        -2.40803530004996e-07,
        0.0,
        9.059747441142461e-08,
        -2.40803530004996e-07,
        -0.5999999642372131,
        0.0,
        0.52629541015625,
        1.2,
        -7.4707939453125,
        1.0
      ]
    },
    {
      "matrix": [
        0.001,
        0.0,
        0.0,
        0.0,
        0.0,
        0.001,
        0.0,
        0.0,
        0.0,
        0.0,
        0.001,
        0.0,
        0.0,
        0.0,
        0.0,
        1.0
      ],
      "mesh": 43,
      "name": "Button036"
    },
    {
      "children": [
        86
      ],
      "matrix": [
        -0.5999999642372131,
        0.0,
        -9.059747441142461e-08,
        0.0,
        3.636032582876938e-14,
        0.5999999642372131,
        -2.40803530004996e-07,
        0.0,
        9.059747441142461e-08,
        -2.40803530004996e-07,
        -0.5999999642372131,
        0.0,
        -0.7942319946289063,
        1.2,
        -7.4707939453125,
        1.0
      ]
    },
    {
      "matrix": [
        0.001,
        0.0,
        0.0,
        0.0,
        0.0,
        0.001,
        0.0,
        0.0,
        0.0,
        0.0,
        0.001,
        0.0,
        0.0,
        0.0,
        0.0,
        1.0
      ],
      "mesh": 44,
      "name": "Button045"
    },
    {
      "children": [
        88
      ],
      "matrix": [
        0.3910633623600006,
        0.0,
        -0.4550488293170929,
        0.0,
        1.8262895196130557e-07,
        0.5999999642372131,
        1.5694908483965264e-07,
        0.0,
        0.4550488293170929,
        -2.40803530004996e-07,
        0.3910633623600006,
        0.0,
        2.666642822265625,
        0.9060224609375,
        -14.4001630859375,
        1.0
      ]
    }
  ],
  "samplers": [
    {
      "magFilter": 9729,
      "minFilter": 9729,
      "wrapS": 10497,
      "wrapT": 10497
    },
    {
      "magFilter": 9729,
      "minFilter": 9729,
      "wrapS": 10497,
      "wrapT": 10497
    }
  ],
  "scenes": [
    {
      "nodes": [
        1,
        3,
        5,
        7,
        9,
        11,
        13,
        15,
        17,
        19,
        21,
        23,
        25,
        27,
        29,
        31,
        33,
        35,
        37,
        39,
        41,
        43,
        45,
        47,
        49,
        51,
        53,
        55,
        57,
        59,
        61,
        63,
        65,
        67,
        69,
        71,
        73,
        75,
        77,
        79,
        81,
        83,
        85,
        87,
        89
      ]
    }
  ],
  "textures": [
    {
      "name": "texture_source0_sampler0",
      "sampler": 0,
      "source": 0
    },
    {
      "name": "texture_source1_sampler1",
      "sampler": 1,
      "source": 1
    }
  ]
}
